<?xml version="1.0" encoding="utf-8"?>
<!-- Generator: Adobe Illustrator 16.0.0, SVG Export Plug-In . SVG Version: 6.00 Build 0)  -->
<!DOCTYPE svg PUBLIC "-//W3C//DTD SVG 1.1//EN" "http://www.w3.org/Graphics/SVG/1.1/DTD/svg11.dtd">
<svg version="1.1" id="Layer_1" xmlns="http://www.w3.org/2000/svg" xmlns:xlink="http://www.w3.org/1999/xlink" x="0px" y="0px"
	 width="303.55px" height="35.625px" viewBox="0 0 303.55 35.625" enable-background="new 0 0 303.55 35.625" xml:space="preserve">
<g>
	<path fill="#919292" d="M170.181,30.678c-0.05-0.008-0.216-0.025-0.477-0.047c-1.273-0.103-2.664-0.362-3.492-2.508
		c-0.266-0.688-10.721-27.79-10.79-27.971c-0.078-0.207-0.275-0.201-0.343,0.007c-0.06,0.178-2.83,8.394-2.83,8.394l7.212,19.849
		c0.127,0.367,0.25,0.732,0.25,1.013c0,0.354-0.239,0.762-0.644,0.953c-0.318,0.149-0.925,0.229-1.392,0.269
		c-0.147,0.012-0.272,0.025-0.405,0.044c-0.146,0.021-0.205,0.147-0.205,0.257c0,0.136,0.102,0.233,0.25,0.233h12.881
		c0.108,0,0.224-0.1,0.224-0.217C170.42,30.753,170.3,30.698,170.181,30.678"/>
	<path fill="#919292" d="M141.122,1.344c0.379-0.223,0.875-0.33,1.879-0.384c0.142-0.007,0.253-0.086,0.253-0.229
		c0-0.15-0.117-0.234-0.226-0.234c-0.11,0-5.949-0.002-6.091-0.002c-0.143,0-0.307,0.043-0.307,0.233
		c0,0.097,0.04,0.206,0.227,0.231c0.142,0.018,0.466,0.038,0.827,0.063c0.871,0.062,1.206,0.152,1.456,0.513
		c0.235,0.338,0.108,0.938-0.156,1.653c-0.264,0.712-7.275,18.687-7.275,18.687h-0.028c-0.085-0.264-5.639-17.726-5.88-18.479
		c-0.24-0.754-0.337-1.285-0.213-1.576c0.227-0.531,0.679-0.719,1.805-0.797c0.155-0.01,0.227-0.016,0.368-0.027
		c0.148-0.014,0.232-0.144,0.2-0.303c-0.033-0.166-0.129-0.199-0.311-0.199c-0.083,0-11.678,0.001-11.731,0.001
		c-0.108,0-0.226,0.071-0.238,0.221c-0.009,0.118,0.046,0.184,0.118,0.216c0.068,0.032,0.274,0.059,0.661,0.086
		c0.858,0.062,1.136,0.134,1.453,0.285c0.644,0.308,1.085,1.133,1.305,1.792c0.22,0.658,9.332,28.054,9.361,28.138
		c0.044,0.128,0.229,0.133,0.284,0.003c0.057-0.133,11.352-28.482,11.514-28.878C140.516,2.018,140.74,1.568,141.122,1.344"/>
	<path fill="#919292" d="M137.917,23.562c0-1.505,0.528-3.465,2.453-4.701c0,0,0.001,0.002,0.002,0.004l-0.002-0.004
		c0.002,0.003,0.004,0.007,0.006,0.01c0.003,0.005,0.007,0.012,0.013,0.021c4.198,6.477,4.432,6.848,6.473,9.981
		c-0.897,0.596-1.892,0.954-2.887,0.954C140.574,29.826,137.917,26.67,137.917,23.562 M141.812,10.04
		c0.393-0.566,0.981-0.8,1.77-0.8c1.071,0,2.381,0.999,2.381,3.523c0,1.587-0.802,3.111-2.091,3.96c0,0-1.112-1.718-1.749-2.917
		C141.563,12.757,141.05,11.133,141.812,10.04 M155.006,28.735c-0.249-0.076-0.404,0.077-0.587,0.51
		c-0.212,0.5-0.669,0.636-1.107,0.636c-0.821,0-1.647-0.94-2.261-1.897c-0.034-0.053-0.383-0.599-0.906-1.421
		c1.333-1.852,2.093-4.02,2.44-5.452c0.12-0.492,0.299-1.238,0.563-1.549c0.368-0.429,0.77-0.553,1.351-0.61
		c0.252-0.025,0.364-0.037,0.458-0.065c0.132-0.039,0.169-0.163,0.157-0.254c-0.018-0.136-0.114-0.197-0.218-0.197s-4.933,0-5.075,0
		c-0.169,0-0.246,0.108-0.246,0.239c0,0.122,0.08,0.19,0.196,0.219c0.08,0.02,0.224,0.034,0.321,0.039
		c0.636,0.033,1.101,0.105,1.391,0.298c0.468,0.312,0.422,0.797,0.334,1.459c-0.199,1.479-0.949,3.658-2.041,5.295
		c-1.987-3.116-5.591-8.773-5.591-8.773s1.492-0.775,2.505-1.358c0.989-0.567,2.501-1.711,2.501-3.579
		c0-1.107-0.634-1.969-1.502-2.543c-0.892-0.59-2.229-1.062-3.747-1.062c-1.891,0-3.914,0.694-5.009,2.433
		c-1.058,1.679-0.785,4.13,0.46,6.18c0.336,0.555,0.705,1.113,0.705,1.113c-0.442,0.159-0.991,0.397-1.455,0.607
		c-2.516,1.169-4.652,3.351-4.652,6.346c0,3.33,2.477,6.009,7.043,6.009c2.49,0,4.542-0.79,6.178-1.958
		c0.754,1.022,2.149,1.79,4.154,1.79c1.903,0,3.41-1.107,3.8-2.015C155.232,29.018,155.192,28.794,155.006,28.735"/>
	<path fill="#919292" d="M235.468,18.234c-3.327,0-6.025,2.696-6.025,6.024s2.698,6.024,6.025,6.024
		c3.326,0,6.023-2.696,6.023-6.024S238.794,18.234,235.468,18.234 M222.574,18.234c-3.327,0-6.024,2.696-6.024,6.024
		s2.697,6.024,6.024,6.024s6.024-2.696,6.024-6.024S225.901,18.234,222.574,18.234 M235.468,5.342c-3.327,0-6.025,2.697-6.025,6.025
		c0,3.327,2.698,6.023,6.025,6.023c3.326,0,6.023-2.696,6.023-6.023C241.491,8.039,238.794,5.342,235.468,5.342 M222.574,5.342
		c-3.327,0-6.024,2.697-6.024,6.025c0,3.327,2.697,6.023,6.024,6.023s6.024-2.696,6.024-6.023
		C228.599,8.039,225.901,5.342,222.574,5.342 M259.151,7.937h-1.871v3.198h1.79c1.295,0,1.902-0.671,1.902-1.631
		C260.973,8.641,260.413,7.937,259.151,7.937 M261.531,16.84c-1.534-3.18-1.934-4.076-2.573-4.076h-1.678v4.076h-1.805V6.308h3.562
		c2.716,0,3.756,1.438,3.756,3.036c0,1.407-0.814,2.351-1.949,2.7v0.017c0.479,0.272,0.988,1.264,2.748,4.779H261.531z
		 M276.516,6.308h-8.552v1.646h3.372v8.886h1.807V7.954h3.373V6.308z M303.55,29.321V27.69h-4.123v-8.903h-1.807v10.534H303.55z
		 M295.97,18.787h-1.804v10.534h1.804V18.787z M281.914,29.32h1.598V18.788h-1.805v5.768c0,0.496,0.015,1.057,0.047,1.408h-0.032
		l-4.89-7.176h-1.951V29.32h1.808v-6.265c0-0.496-0.017-1.056-0.048-1.406h0.031L281.914,29.32z M268.993,29.48
		c2.652,0,4.283-1.263,4.283-4.125v-6.568h-1.806v6.633c0,1.757-0.912,2.414-2.447,2.414c-1.501,0-2.445-0.657-2.445-2.414v-6.633
		h-1.806v6.568C264.772,28.218,266.387,29.48,268.993,29.48 M261.648,24.077c0-2.301-1.311-3.772-3.085-3.772
		s-3.085,1.472-3.085,3.788c0,2.305,1.311,3.773,3.085,3.773S261.648,26.397,261.648,24.077 M263.552,24.044
		c0,3.167-2.017,5.437-4.988,5.437c-3.004,0-4.987-2.19-4.987-5.354c0-3.165,2.014-5.436,4.987-5.436
		C261.57,18.69,263.552,20.882,263.552,24.044 M284.866,24.11c0,3.165,1.806,5.37,4.957,5.37c1.151,0,2.03-0.225,2.924-0.622
		l-0.542-1.536c-0.513,0.242-1.185,0.527-2.191,0.527c-2.077,0-3.244-1.692-3.244-3.772c0-2.062,1.246-3.755,3.244-3.755
		c1.007,0,1.679,0.288,2.191,0.526l0.542-1.535c-0.894-0.398-1.772-0.623-2.924-0.623C286.672,18.69,284.866,21.153,284.866,24.11
		 M245.346,24.11c0,3.165,1.805,5.37,4.954,5.37c1.151,0,2.029-0.225,2.927-0.622l-0.545-1.536
		c-0.512,0.242-1.184,0.527-2.188,0.527c-2.079,0-3.245-1.692-3.245-3.772c0-2.062,1.246-3.755,3.245-3.755
		c1.005,0,1.677,0.288,2.188,0.526l0.545-1.535c-0.897-0.398-1.775-0.623-2.927-0.623C247.15,18.69,245.346,21.153,245.346,24.11
		 M299.427,16.84V6.306h-1.807v4.316h-5.116V6.306h-1.806V16.84h1.806V12.3h5.116v4.54H299.427z M281.78,9.183
		c0,3.597,5.371,2.604,5.371,4.86c0,0.957-1.007,1.374-2.095,1.374c-1.214,0-2.238-0.431-2.878-0.831l-0.75,1.471
		c0.782,0.478,1.918,0.941,3.562,0.941c2.415,0,4.079-1.245,4.079-3.212c0-3.564-5.421-2.7-5.421-4.858
		c0-0.831,0.849-1.137,1.838-1.137c1.102,0,2.03,0.289,2.942,0.737l0.029-1.728c-0.637-0.318-1.789-0.591-2.924-0.591
		C283.313,6.21,281.78,7.264,281.78,9.183 M279.701,6.306h-1.805V16.84h1.805V6.306z M266.588,6.306h-1.806V16.84h1.806V6.306z
		 M251.604,12.475c-0.255-0.11-0.575-0.175-1.199-0.175h-2.285v2.909h2.157c0.655,0,1.04-0.08,1.344-0.223
		c0.512-0.255,0.768-0.705,0.768-1.311C252.388,13.131,252.099,12.699,251.604,12.475 M251.045,8.111
		c-0.24-0.111-0.528-0.176-0.991-0.176h-1.935v2.749h1.822c0.575,0,0.927-0.096,1.182-0.24c0.417-0.237,0.624-0.639,0.624-1.15
		C251.747,8.767,251.507,8.336,251.045,8.111 M246.312,16.84V6.306h3.868c0.832,0,1.374,0.127,1.822,0.335
		c1.07,0.513,1.552,1.487,1.552,2.382c0,1.009-0.418,1.693-1.265,2.206v0.032c1.214,0.271,1.95,1.117,1.95,2.397
		c0,1.423-0.863,2.51-2.333,2.958c-0.528,0.16-1.103,0.224-2.015,0.224H246.312z"/>
	<path fill="#919292" d="M29.129,1.447c2.787,0,5.048,2.26,5.048,5.049c0,2.788-2.261,5.049-5.048,5.049
		c-2.789,0-5.049-2.261-5.049-5.049C24.081,3.707,26.34,1.447,29.129,1.447 M29.129,12.992c3.588,0,6.496-2.908,6.496-6.496
		S32.717,0,29.129,0c-3.589,0-6.497,2.908-6.497,6.496S25.541,12.992,29.129,12.992"/>
	<path fill="#919292" d="M12.841,17.813c0-2.745,2.225-4.971,4.971-4.971l0.001-1.42c-3.534,0-6.397,2.857-6.397,6.391
		c0,3.532,2.863,6.396,6.396,6.396c3.533,0,6.389-2.863,6.389-6.396h-1.409c0,2.745-2.235,4.971-4.98,4.971
		C15.066,22.784,12.841,20.559,12.841,17.813"/>
	<path fill="#919292" d="M8.583,17.812c0,5.098,4.132,9.229,9.229,9.229c5.097,0,9.238-4.132,9.238-9.229h-1.414
		c0,4.315-3.51,7.812-7.824,7.812c-4.315,0-7.812-3.497-7.812-7.812c0-4.313,3.498-7.81,7.812-7.81V8.584
		C12.716,8.584,8.583,12.716,8.583,17.812"/>
	<path fill="#919292" d="M5.719,17.812c0,6.68,5.415,12.094,12.093,12.094c6.679,0,12.08-5.413,12.08-12.094h-1.424
		c0,5.881-4.777,10.647-10.656,10.647c-5.88,0-10.646-4.767-10.646-10.647c0-5.879,4.766-10.646,10.646-10.646l0.001-1.435
		C11.134,5.732,5.719,11.134,5.719,17.812"/>
	<path fill="#919292" d="M17.813,2.852c-8.263,0-14.962,6.697-14.962,14.961S9.55,32.774,17.813,32.774
		c8.262,0,14.951-6.697,14.951-14.961h-1.422c0,7.466-6.063,13.519-13.529,13.519c-7.467,0-13.519-6.053-13.519-13.519
		c0-7.467,6.052-13.521,13.519-13.521V2.852z"/>
	<path fill="#919292" d="M17.813,34.206c-9.054,0-16.394-7.341-16.394-16.394c0-9.054,7.34-16.393,16.394-16.393V0
		C7.974,0,0,7.975,0,17.812c0,9.837,7.975,17.812,17.813,17.812c9.837,0,17.812-7.974,17.812-17.812l-1.409-0.001
		C34.216,26.865,26.867,34.206,17.813,34.206"/>
	<path fill="#919292" d="M43.961,15.555c0.711,0,1.586-0.159,2.063-0.383v-3.858h-2.429v1.214h0.965v1.732
		c-0.169,0.03-0.425,0.042-0.636,0.042c-1.075,0-1.909-0.567-1.909-2.391c0-1.795,0.842-2.364,2.095-2.364
		c0.524,0,1.214,0.112,1.652,0.29l0.15-1.225c-0.486-0.196-1.278-0.317-1.885-0.317c-2.16,0-3.553,1.129-3.553,3.635
		C40.474,14.379,41.764,15.555,43.961,15.555"/>
</g>
<polygon fill="#919292" points="68.439,15.415 69.943,15.415 69.943,8.406 68.439,8.406 68.439,11.175 66.187,11.175 66.187,8.406 
	64.682,8.406 64.682,15.415 66.187,15.415 66.187,12.425 68.439,12.425 "/>
<polygon fill="#919292" points="62.312,15.415 62.312,9.668 63.834,9.668 63.834,8.406 59.267,8.406 59.267,9.668 60.789,9.668 
	60.789,15.415 "/>
<polygon fill="#919292" points="55.727,12.432 58.2,12.432 58.2,11.195 55.727,11.195 55.727,9.657 58.64,9.657 58.64,8.407 
	54.222,8.407 54.222,15.415 58.738,15.415 58.738,14.165 55.727,14.165 "/>
<g>
	<path fill="#919292" d="M50.096,9.449c0.954,0,1.412,0.597,1.412,2.457c0,1.852-0.458,2.477-1.402,2.477
		c-0.954,0-1.422-0.616-1.422-2.477C48.684,10.055,49.151,9.449,50.096,9.449 M50.096,15.621c1.991,0,2.952-1.07,2.952-3.715
		c0-2.589-0.961-3.705-2.952-3.705c-1.99,0-2.952,1.116-2.952,3.705S48.143,15.621,50.096,15.621"/>
</g>
<polygon fill="#919292" points="75.95,14.165 72.938,14.165 72.938,12.432 75.411,12.432 75.411,11.196 72.938,11.196 72.938,9.657 
	75.851,9.657 75.851,8.407 71.434,8.407 71.434,15.415 75.95,15.415 "/>
<polygon fill="#919292" points="54.018,19.038 55.412,19.038 55.412,24.584 56.88,24.584 56.88,19.038 58.274,19.038 58.274,17.819 
	54.018,17.819 "/>
<rect x="40.979" y="17.82" fill="#919292" width="1.484" height="6.764"/>
<g>
	<path fill="#919292" d="M69.701,22.231c0,0.783-0.269,1.219-1,1.219c-0.725,0-1.011-0.443-1.011-1.219V17.82h-1.471v4.465
		c0,1.623,0.836,2.417,2.478,2.417c1.624,0,2.459-0.794,2.459-2.417V17.82h-1.455V22.231z"/>
	<path fill="#919292" d="M51.18,19.623c0-0.35,0.18-0.697,0.916-0.697c0.461,0,0.87,0.124,1.28,0.302l0.162-1.182
		c-0.469-0.216-0.955-0.333-1.569-0.333c-1.56,0-2.233,0.901-2.233,2.046c0,2.177,2.689,1.76,2.689,2.969
		c0,0.465-0.292,0.776-0.907,0.776c-0.605,0-1.118-0.204-1.62-0.488l-0.19,1.208c0.523,0.308,1.17,0.479,1.873,0.479
		c1.462,0,2.289-0.812,2.289-2.137C53.87,20.318,51.18,20.668,51.18,19.623"/>
</g>
<polygon fill="#919292" points="47.362,21.77 45.282,17.82 43.94,17.82 43.94,24.584 45.282,24.584 45.282,20.636 47.362,24.584 
	48.705,24.584 48.705,17.82 47.362,17.82 "/>
<polygon fill="#919292" points="71.842,17.82 71.842,19.038 73.236,19.038 73.236,24.584 74.705,24.584 74.705,19.038 
	76.099,19.038 76.099,17.82 "/>
<rect x="59.026" y="17.82" fill="#919292" width="1.484" height="6.764"/>
<polygon fill="#919292" points="61.262,19.038 62.656,19.038 62.656,24.584 64.125,24.584 64.125,19.038 65.519,19.038 
	65.519,17.819 61.262,17.819 "/>
</svg>
