<?xml version="1.0" encoding="utf-8"?>
<!-- Generator: Adobe Illustrator 16.0.0, SVG Export Plug-In . SVG Version: 6.00 Build 0)  -->
<!DOCTYPE svg PUBLIC "-//W3C//DTD SVG 1.1//EN" "http://www.w3.org/Graphics/SVG/1.1/DTD/svg11.dtd">
<svg version="1.1" id="Layer_1" xmlns="http://www.w3.org/2000/svg" xmlns:xlink="http://www.w3.org/1999/xlink" x="0px" y="0px"
	 width="303.55px" height="35.625px" viewBox="0 0 303.55 35.625" enable-background="new 0 0 303.55 35.625" xml:space="preserve">
<path fill="#919292" d="M235.468,18.234c-3.327,0-6.025,2.696-6.025,6.024s2.698,6.024,6.025,6.024c3.326,0,6.023-2.696,6.023-6.024
	S238.794,18.234,235.468,18.234 M222.574,18.234c-3.326,0-6.023,2.696-6.023,6.024s2.697,6.024,6.023,6.024
	c3.327,0,6.024-2.696,6.024-6.024S225.901,18.234,222.574,18.234 M235.468,5.342c-3.327,0-6.025,2.697-6.025,6.025
	c0,3.327,2.698,6.023,6.025,6.023c3.326,0,6.023-2.696,6.023-6.023C241.492,8.039,238.794,5.342,235.468,5.342 M222.574,5.342
	c-3.326,0-6.023,2.697-6.023,6.025c0,3.327,2.697,6.023,6.023,6.023c3.327,0,6.024-2.696,6.024-6.023
	C228.599,8.039,225.901,5.342,222.574,5.342 M259.151,7.937h-1.871v3.198h1.79c1.295,0,1.902-0.671,1.902-1.631
	C260.973,8.641,260.414,7.937,259.151,7.937 M261.531,16.84c-1.533-3.18-1.934-4.076-2.572-4.076h-1.679v4.076h-1.805V6.308h3.562
	c2.717,0,3.756,1.438,3.756,3.036c0,1.407-0.813,2.351-1.948,2.7v0.017c0.479,0.272,0.987,1.264,2.747,4.779H261.531z
	 M276.516,6.308h-8.552v1.646h3.371v8.886h1.808V7.954h3.373V6.308z M303.55,29.32v-1.631h-4.123v-8.902h-1.807V29.32H303.55z
	 M295.97,18.787h-1.805V29.32h1.805V18.787z M281.914,29.32h1.598V18.788h-1.805v5.769c0,0.495,0.016,1.057,0.047,1.407h-0.031
	l-4.891-7.176h-1.951V29.32h1.809v-6.266c0-0.496-0.018-1.056-0.048-1.406h0.03L281.914,29.32z M268.994,29.48
	c2.651,0,4.282-1.264,4.282-4.125v-6.568h-1.806v6.633c0,1.757-0.912,2.414-2.447,2.414c-1.501,0-2.445-0.657-2.445-2.414v-6.633
	h-1.806v6.568C264.772,28.218,266.387,29.48,268.994,29.48 M261.648,24.077c0-2.302-1.311-3.772-3.085-3.772
	s-3.085,1.473-3.085,3.788c0,2.306,1.311,3.773,3.085,3.773S261.648,26.396,261.648,24.077 M263.552,24.044
	c0,3.167-2.018,5.437-4.988,5.437c-3.004,0-4.986-2.189-4.986-5.354c0-3.165,2.014-5.436,4.986-5.436
	C261.57,18.689,263.552,20.882,263.552,24.044 M284.867,24.109c0,3.166,1.805,5.371,4.957,5.371c1.15,0,2.029-0.226,2.924-0.623
	l-0.543-1.535c-0.513,0.242-1.185,0.527-2.19,0.527c-2.077,0-3.244-1.692-3.244-3.772c0-2.062,1.246-3.755,3.244-3.755
	c1.007,0,1.679,0.287,2.19,0.525l0.543-1.535c-0.895-0.397-1.772-0.623-2.924-0.623C286.671,18.689,284.867,21.152,284.867,24.109
	 M245.346,24.109c0,3.166,1.805,5.371,4.954,5.371c1.15,0,2.029-0.226,2.927-0.623l-0.545-1.535
	c-0.513,0.242-1.185,0.527-2.188,0.527c-2.078,0-3.244-1.692-3.244-3.772c0-2.062,1.246-3.755,3.244-3.755
	c1.006,0,1.678,0.287,2.188,0.525l0.545-1.535c-0.897-0.397-1.774-0.623-2.927-0.623C247.15,18.689,245.346,21.152,245.346,24.109
	 M299.427,16.84V6.306h-1.807v4.316h-5.117V6.306h-1.805V16.84h1.805V12.3h5.117v4.54H299.427z M281.781,9.183
	c0,3.597,5.37,2.604,5.37,4.86c0,0.957-1.007,1.374-2.095,1.374c-1.215,0-2.238-0.431-2.879-0.831l-0.75,1.471
	c0.783,0.478,1.919,0.941,3.562,0.941c2.416,0,4.079-1.245,4.079-3.212c0-3.564-5.421-2.7-5.421-4.858
	c0-0.831,0.85-1.137,1.838-1.137c1.102,0,2.03,0.289,2.942,0.737l0.028-1.728c-0.637-0.318-1.789-0.591-2.924-0.591
	C283.313,6.21,281.781,7.264,281.781,9.183 M279.701,6.306h-1.805V16.84h1.805V6.306z M266.587,6.306h-1.805V16.84h1.805V6.306z
	 M251.604,12.475c-0.255-0.11-0.575-0.175-1.199-0.175h-2.284v2.909h2.156c0.655,0,1.04-0.08,1.344-0.223
	c0.512-0.255,0.769-0.705,0.769-1.311C252.388,13.131,252.099,12.699,251.604,12.475 M251.044,8.111
	c-0.239-0.111-0.527-0.176-0.99-0.176h-1.936v2.749h1.822c0.575,0,0.928-0.096,1.182-0.24c0.418-0.237,0.625-0.639,0.625-1.15
	C251.748,8.767,251.507,8.336,251.044,8.111 M246.312,16.84V6.306h3.868c0.832,0,1.374,0.127,1.821,0.335
	c1.07,0.513,1.553,1.487,1.553,2.382c0,1.009-0.418,1.693-1.266,2.206v0.032c1.215,0.271,1.951,1.117,1.951,2.397
	c0,1.423-0.863,2.51-2.334,2.958c-0.527,0.16-1.103,0.224-2.015,0.224H246.312z"/>
<path fill="#919292" d="M127.974,1.447c2.787,0,5.048,2.26,5.048,5.049c0,2.788-2.261,5.049-5.048,5.049
	c-2.789,0-5.049-2.261-5.049-5.049C122.926,3.707,125.185,1.447,127.974,1.447 M127.974,12.992c3.588,0,6.496-2.908,6.496-6.496
	S131.562,0,127.974,0c-3.589,0-6.497,2.908-6.497,6.496S124.386,12.992,127.974,12.992"/>
<path fill="#919292" d="M111.686,17.813c0-2.745,2.225-4.971,4.971-4.971l0.001-1.42c-3.534,0-6.397,2.857-6.397,6.391
	c0,3.532,2.863,6.396,6.396,6.396s6.389-2.863,6.389-6.396h-1.409c0,2.746-2.235,4.971-4.98,4.971
	C113.911,22.784,111.686,20.559,111.686,17.813"/>
<path fill="#919292" d="M107.428,17.812c0,5.098,4.132,9.229,9.229,9.229s9.238-4.132,9.238-9.229h-1.414
	c0,4.315-3.51,7.812-7.824,7.812c-4.315,0-7.812-3.497-7.812-7.812c0-4.313,3.498-7.81,7.812-7.81V8.584
	C111.561,8.584,107.428,12.716,107.428,17.812"/>
<path fill="#919292" d="M104.564,17.812c0,6.68,5.415,12.094,12.093,12.094c6.679,0,12.08-5.413,12.08-12.094h-1.424
	c0,5.881-4.777,10.647-10.656,10.647c-5.88,0-10.646-4.768-10.646-10.647c0-5.879,4.766-10.646,10.646-10.646l0.001-1.435
	C109.979,5.732,104.564,11.134,104.564,17.812"/>
<path fill="#919292" d="M116.658,2.852c-8.263,0-14.962,6.697-14.962,14.961s6.699,14.96,14.962,14.96
	c8.262,0,14.951-6.696,14.951-14.96h-1.422c0,7.466-6.063,13.519-13.529,13.519c-7.467,0-13.519-6.053-13.519-13.519
	c0-7.467,6.052-13.521,13.519-13.521V2.852z"/>
<path fill="#919292" d="M116.658,34.206c-9.054,0-16.394-7.341-16.394-16.394c0-9.054,7.34-16.393,16.394-16.393V0
	c-9.839,0-17.813,7.975-17.813,17.812c0,9.836,7.975,17.812,17.813,17.812c9.837,0,17.812-7.974,17.812-17.812l-1.409-0.001
	C133.061,26.865,125.712,34.206,116.658,34.206"/>
<path fill="#919292" d="M142.806,15.555c0.711,0,1.586-0.159,2.062-0.383v-3.858h-2.428v1.214h0.965v1.732
	c-0.17,0.03-0.426,0.042-0.637,0.042c-1.074,0-1.908-0.567-1.908-2.391c0-1.795,0.842-2.364,2.094-2.364
	c0.524,0,1.215,0.112,1.652,0.29l0.15-1.225c-0.486-0.196-1.278-0.317-1.885-0.317c-2.16,0-3.553,1.129-3.553,3.635
	C139.319,14.379,140.609,15.555,142.806,15.555"/>
<polygon fill="#919292" points="167.285,15.415 168.789,15.415 168.789,8.406 167.285,8.406 167.285,11.175 165.033,11.175 
	165.033,8.406 163.527,8.406 163.527,15.415 165.033,15.415 165.033,12.425 167.285,12.425 "/>
<polygon fill="#919292" points="161.158,15.415 161.158,9.668 162.679,9.668 162.679,8.406 158.113,8.406 158.113,9.668 
	159.634,9.668 159.634,15.415 "/>
<polygon fill="#919292" points="154.572,12.432 157.045,12.432 157.045,11.195 154.572,11.195 154.572,9.657 157.486,9.657 
	157.486,8.407 153.068,8.407 153.068,15.415 157.583,15.415 157.583,14.165 154.572,14.165 "/>
<g>
	<path fill="#919292" d="M148.941,9.449c0.954,0,1.412,0.597,1.412,2.457c0,1.852-0.458,2.477-1.402,2.477
		c-0.953,0-1.422-0.616-1.422-2.477C147.529,10.055,147.996,9.449,148.941,9.449 M148.941,15.621c1.991,0,2.952-1.07,2.952-3.715
		c0-2.589-0.961-3.705-2.952-3.705c-1.99,0-2.951,1.116-2.951,3.705C145.99,14.495,146.988,15.621,148.941,15.621"/>
</g>
<polygon fill="#919292" points="174.795,14.165 171.783,14.165 171.783,12.432 174.256,12.432 174.256,11.196 171.783,11.196 
	171.783,9.657 174.697,9.657 174.697,8.407 170.279,8.407 170.279,15.415 174.795,15.415 "/>
<polygon fill="#919292" points="152.863,19.038 154.257,19.038 154.257,24.584 155.725,24.584 155.725,19.038 157.119,19.038 
	157.119,17.819 152.863,17.819 "/>
<rect x="139.824" y="17.82" fill="#919292" width="1.484" height="6.764"/>
<g>
	<path fill="#919292" d="M168.546,22.23c0,0.783-0.27,1.22-1,1.22c-0.725,0-1.012-0.443-1.012-1.22V17.82h-1.471v4.465
		c0,1.623,0.836,2.417,2.479,2.417c1.623,0,2.459-0.794,2.459-2.417V17.82h-1.455V22.23z"/>
	<path fill="#919292" d="M150.025,19.623c0-0.35,0.18-0.697,0.916-0.697c0.461,0,0.87,0.124,1.28,0.303l0.162-1.183
		c-0.47-0.216-0.955-0.333-1.569-0.333c-1.56,0-2.232,0.901-2.232,2.046c0,2.177,2.688,1.761,2.688,2.97
		c0,0.465-0.292,0.775-0.907,0.775c-0.604,0-1.117-0.204-1.619-0.488l-0.19,1.209c0.522,0.308,1.17,0.479,1.873,0.479
		c1.462,0,2.289-0.812,2.289-2.137C152.715,20.318,150.025,20.668,150.025,19.623"/>
</g>
<polygon fill="#919292" points="146.207,21.77 144.127,17.82 142.785,17.82 142.785,24.584 144.127,24.584 144.127,20.636 
	146.207,24.584 147.55,24.584 147.55,17.82 146.207,17.82 "/>
<polygon fill="#919292" points="170.687,17.82 170.687,19.038 172.082,19.038 172.082,24.584 173.55,24.584 173.55,19.038 
	174.945,19.038 174.945,17.82 "/>
<rect x="157.871" y="17.82" fill="#919292" width="1.484" height="6.764"/>
<polygon fill="#919292" points="160.107,19.038 161.501,19.038 161.501,24.584 162.97,24.584 162.97,19.038 164.365,19.038 
	164.365,17.819 160.107,17.819 "/>
<path fill="#919292" d="M55.181,30.678c-0.051-0.008-0.217-0.025-0.477-0.047c-1.273-0.104-2.664-0.361-3.492-2.508
	c-0.267-0.688-10.721-27.79-10.791-27.971c-0.078-0.207-0.274-0.201-0.342,0.007c-0.061,0.178-2.831,8.394-2.831,8.394l7.211,19.85
	c0.127,0.367,0.25,0.731,0.25,1.013c0,0.354-0.238,0.762-0.644,0.953c-0.317,0.149-0.925,0.229-1.392,0.269
	c-0.147,0.012-0.272,0.025-0.405,0.045c-0.146,0.021-0.205,0.146-0.205,0.256c0,0.137,0.103,0.233,0.25,0.233h12.881
	c0.108,0,0.224-0.101,0.224-0.217C55.419,30.753,55.3,30.698,55.181,30.678"/>
<path fill="#919292" d="M26.122,1.344c0.379-0.223,0.875-0.33,1.879-0.384c0.142-0.007,0.253-0.086,0.253-0.229
	c0-0.15-0.117-0.234-0.226-0.234c-0.11,0-5.949-0.002-6.091-0.002c-0.143,0-0.307,0.043-0.307,0.233c0,0.097,0.04,0.206,0.227,0.231
	c0.142,0.018,0.466,0.038,0.827,0.063c0.871,0.062,1.206,0.152,1.456,0.513c0.235,0.338,0.108,0.938-0.156,1.653
	C23.72,3.9,16.709,21.875,16.709,21.875h-0.028c-0.085-0.264-5.639-17.726-5.88-18.479c-0.24-0.754-0.337-1.285-0.213-1.576
	c0.227-0.531,0.679-0.719,1.805-0.797c0.155-0.01,0.227-0.016,0.368-0.027c0.148-0.014,0.232-0.144,0.2-0.303
	c-0.033-0.166-0.129-0.199-0.311-0.199c-0.083,0-11.678,0.001-11.731,0.001c-0.108,0-0.226,0.071-0.238,0.221
	C0.672,0.834,0.727,0.9,0.799,0.932C0.867,0.964,1.073,0.991,1.46,1.018C2.318,1.08,2.596,1.152,2.913,1.303
	c0.644,0.308,1.085,1.133,1.305,1.792c0.22,0.658,9.332,28.054,9.361,28.138c0.044,0.129,0.229,0.134,0.284,0.004
	C13.92,31.104,25.215,2.754,25.377,2.358C25.516,2.018,25.74,1.568,26.122,1.344"/>
<path fill="#919292" d="M22.917,23.562c0-1.506,0.528-3.465,2.453-4.701c0,0,0.001,0.002,0.002,0.004l-0.002-0.004
	c0.002,0.003,0.004,0.007,0.006,0.01c0.003,0.005,0.007,0.012,0.013,0.021c4.198,6.477,4.432,6.848,6.473,9.98
	c-0.897,0.596-1.892,0.954-2.887,0.954C25.574,29.826,22.917,26.67,22.917,23.562 M26.812,10.04c0.393-0.566,0.981-0.8,1.77-0.8
	c1.071,0,2.381,0.999,2.381,3.523c0,1.587-0.802,3.111-2.091,3.96c0,0-1.112-1.718-1.749-2.917
	C26.563,12.757,26.05,11.133,26.812,10.04 M40.005,28.734c-0.248-0.075-0.403,0.078-0.586,0.511c-0.213,0.5-0.67,0.636-1.107,0.636
	c-0.82,0-1.647-0.939-2.261-1.896c-0.034-0.053-0.383-0.6-0.906-1.422c1.333-1.852,2.093-4.02,2.44-5.451
	c0.119-0.492,0.299-1.238,0.562-1.549c0.368-0.43,0.77-0.554,1.352-0.61c0.252-0.025,0.363-0.037,0.457-0.065
	c0.133-0.039,0.17-0.162,0.157-0.254c-0.018-0.136-0.114-0.197-0.218-0.197s-4.933,0-5.075,0c-0.169,0-0.246,0.108-0.246,0.239
	c0,0.122,0.08,0.19,0.196,0.22c0.08,0.02,0.224,0.033,0.321,0.039c0.636,0.032,1.101,0.104,1.391,0.297
	c0.468,0.312,0.422,0.797,0.334,1.459c-0.199,1.479-0.949,3.658-2.041,5.295c-1.987-3.115-5.591-8.772-5.591-8.772
	s1.492-0.775,2.505-1.358c0.989-0.567,2.501-1.711,2.501-3.579c0-1.107-0.634-1.969-1.502-2.543
	c-0.892-0.59-2.229-1.062-3.747-1.062c-1.891,0-3.914,0.694-5.009,2.433c-1.058,1.679-0.785,4.13,0.46,6.18
	c0.336,0.555,0.705,1.113,0.705,1.113c-0.442,0.158-0.991,0.396-1.455,0.606c-2.516,1.169-4.652,3.351-4.652,6.347
	c0,3.33,2.477,6.008,7.043,6.008c2.49,0,4.542-0.789,6.178-1.957c0.754,1.021,2.149,1.789,4.154,1.789
	c1.903,0,3.41-1.106,3.799-2.015C40.232,29.018,40.192,28.794,40.005,28.734"/>
</svg>
