<?xml version="1.0" encoding="utf-8"?>
<!-- Generator: Adobe Illustrator 16.0.0, SVG Export Plug-In . SVG Version: 6.00 Build 0)  -->
<!DOCTYPE svg PUBLIC "-//W3C//DTD SVG 1.1//EN" "http://www.w3.org/Graphics/SVG/1.1/DTD/svg11.dtd">
<svg version="1.1" id="Layer_1" xmlns="http://www.w3.org/2000/svg" xmlns:xlink="http://www.w3.org/1999/xlink" x="0px" y="0px"
	 width="449.688px" height="449.688px" viewBox="0 0 449.688 449.688" enable-background="new 0 0 449.688 449.688"
	 xml:space="preserve">
<g>
	<path fill="#FFFFFF" d="M429.151,24.479c0.439-2.514,1.396-4.499,2.872-5.956c1.477-1.456,3.312-2.185,5.507-2.185
		c2.394,0,4.289,0.749,5.687,2.245c1.396,1.496,2.054,3.462,1.975,5.896H429.151z M446.508,17.058
		c-1.996-2.394-4.908-3.591-8.738-3.591c-3.95,0-7.083,1.436-9.397,4.309c-2.313,2.873-3.47,6.583-3.47,11.132
		c0,10.174,4.526,15.262,13.585,15.262c3.552,0,6.764-0.578,9.637-1.736l-0.359-3.352c-2.554,1.278-5.427,1.916-8.618,1.916
		c-7.144,0-10.555-4.528-10.234-13.586h20.169c0.08-0.559,0.12-1.217,0.12-1.975C449.201,21.965,448.304,19.173,446.508,17.058
		 M404.471,41.058c-2.465,0-4.532-0.299-6.202-0.897V29.327c0-3.112,0.754-5.905,2.266-8.379c1.789-2.952,4.154-4.429,7.098-4.429
		c5.09,0,7.635,3.77,7.635,11.311C415.267,36.649,411.667,41.058,404.471,41.058 M408.204,13.467c-2.396,0-4.51,0.658-6.345,1.975
		c-1.836,1.317-3.172,3.112-4.01,5.386l-0.12-0.06c0.359-1.556,0.539-3.83,0.539-6.823h-3.831v44.769h3.831V43.631
		c1.71,0.24,3.68,0.359,5.907,0.359c4.616,0,8.276-1.426,10.981-4.28c2.706-2.852,4.058-6.932,4.058-12.239
		C419.215,18.135,415.544,13.467,408.204,13.467 M379.716,38.118c-1.717,2-3.912,3-6.585,3c-3.073,0-5.445-1.09-7.122-3.269
		c-1.676-2.18-2.514-5.25-2.514-9.21c0-3.919,0.978-6.98,2.933-9.18c1.756-1.959,3.97-2.939,6.644-2.939
		c3.112,0,5.477,1.06,7.093,3.18c1.616,2.12,2.424,5.08,2.424,8.878C382.588,32.699,381.63,35.877,379.716,38.118 M382.536,16.759
		c-2.23-2.194-5.256-3.292-9.077-3.292c-4.3,0-7.724,1.536-10.271,4.608c-2.429,2.873-3.644,6.484-3.644,10.833
		c0,5.067,1.176,8.918,3.525,11.551c2.188,2.475,5.314,3.711,9.375,3.711c4.219,0,7.644-1.557,10.271-4.669
		c2.468-2.952,3.702-6.663,3.702-11.132C386.418,23.183,385.123,19.312,382.536,16.759 M355.057,13.407
		c-4.828,0-7.96,2.793-9.396,8.379l-0.12-0.061c0.519-2.552,0.778-5.147,0.778-7.78h-3.83v29.746h3.83V31.894
		c0-9.851,2.776-14.776,8.33-14.776h1.605l0.179-3.651C355.954,13.427,355.496,13.407,355.057,13.407 M331.774,13.946h-3.83V28.19
		c0,3.751-0.895,6.853-2.683,9.307c-1.789,2.453-4.075,3.68-6.856,3.68c-2.226,0-3.816-0.697-4.77-2.095
		c-0.836-1.236-1.252-3.171-1.252-5.805V13.946h-3.831v20.708c0,6.384,2.993,9.576,8.978,9.576c5.347,0,8.938-2.493,10.772-7.481
		l0.121,0.06c-0.32,1.835-0.479,4.129-0.479,6.883h3.83V13.946z M299.037,40.519h-16.1v-16.16h15.322v-3.052h-15.322V6.345h16.1
		V3.292h-19.931v40.399h19.931V40.519z M247.395,54.285c-1.949,1.317-4.614,1.976-7.996,1.976c-2.706,0-4.913-0.539-6.624-1.616
		c-1.711-1.078-2.566-2.614-2.566-4.608c0-2.633,1.531-4.749,4.595-6.344h8.355c4.773,0,7.16,1.795,7.16,5.387
		C250.319,51.232,249.344,52.968,247.395,54.285 M246.04,30.314c-1.537,1.376-3.621,2.065-6.255,2.065
		c-5.666,0-8.498-2.634-8.498-7.9c0-2.394,0.778-4.339,2.334-5.836c1.556-1.497,3.689-2.244,6.403-2.244
		c2.634,0,4.678,0.709,6.135,2.125c1.456,1.417,2.185,3.402,2.185,5.956C248.344,26.993,247.576,28.938,246.04,30.314
		 M251.546,42.524c-1.735-1.456-4.2-2.185-7.392-2.185h-6.104c-3.672,0-5.507-0.897-5.507-2.693c0-1.276,0.778-2.234,2.334-2.873
		c1.356,0.358,2.813,0.538,4.369,0.538c4.149,0,7.381-1.093,9.695-3.281c2.155-1.988,3.232-4.633,3.232-7.934
		c0-3.182-1.038-5.548-3.112-7.1h5.626v-3.052h-10.115c-1.676-0.319-3.112-0.479-4.31-0.479c-3.87,0-6.972,1.098-9.307,3.292
		c-2.334,2.194-3.501,4.908-3.501,8.14c0,4.069,1.476,6.982,4.429,8.738c-2.155,0.998-3.232,2.554-3.232,4.668
		c0,1.915,0.997,3.351,2.993,4.309c-3.512,1.835-5.267,4.528-5.267,8.08c0,2.792,1.107,4.947,3.322,6.464
		c2.214,1.516,5.217,2.274,9.007,2.274c4.468,0,8.16-1.028,11.073-3.083c2.912-2.055,4.369-4.638,4.369-7.75
		C254.149,46.005,253.281,43.98,251.546,42.524 M218.478,22.983c0-6.383-3.001-9.576-9.004-9.576c-5.363,0-8.965,2.494-10.806,7.481
		l-0.12-0.061c0.359-1.875,0.539-4.168,0.539-6.882h-3.831v29.746h3.831V29.447c0-3.75,0.894-6.853,2.683-9.306
		c1.788-2.455,4.073-3.681,6.856-3.681c2.226,0,3.816,0.698,4.77,2.094c0.834,1.238,1.252,3.172,1.252,5.806v19.332h3.83V22.983z
		 M185.022,13.946h-3.831v29.746h3.831V13.946z M185.022,3.651c-0.519-0.518-1.158-0.778-1.916-0.778
		c-0.758,0-1.397,0.26-1.915,0.778c-0.519,0.52-0.778,1.158-0.778,1.916c0,0.758,0.259,1.397,0.778,1.916
		c0.517,0.519,1.156,0.778,1.915,0.778c0.758,0,1.397-0.259,1.916-0.778c0.518-0.519,0.778-1.158,0.778-1.916
		C185.801,4.809,185.54,4.17,185.022,3.651 M173.173,40.22c-1.308,0.359-2.774,0.539-4.4,0.539c-1.863,0-3.112-0.477-3.747-1.433
		c-0.634-0.955-0.951-2.845-0.951-5.672V16.998h9.098v-3.052h-9.098V2.873l-3.83,1.018v10.055h-6.764v3.052h6.764V35.51
		c0,3.106,0.521,5.276,1.563,6.51c1.082,1.393,3.046,2.09,5.893,2.09c1.764,0,3.587-0.179,5.472-0.539V40.22z M149.712,39.023
		c-2.315,1.158-4.949,1.735-7.901,1.735c-6.344,0-9.516-3.89-9.516-11.673c0-3.851,0.858-6.899,2.574-9.142
		c1.715-2.243,4.209-3.365,7.481-3.365c2.474,0,4.867,0.459,7.182,1.377l0.419-3.306c-2.236-0.668-4.629-1.003-7.182-1.003
		c-4.709,0-8.3,1.441-10.774,4.322c-2.474,2.883-3.71,6.847-3.71,11.894c0,9.419,4.25,14.128,12.748,14.128
		c3.072,0,6.084-0.571,9.037-1.715L149.712,39.023z M102.251,24.479c0.438-2.514,1.396-4.499,2.873-5.956
		c1.476-1.456,3.311-2.185,5.506-2.185c2.394,0,4.289,0.749,5.686,2.245c1.396,1.496,2.054,3.462,1.975,5.896H102.251z
		 M119.607,17.058c-1.996-2.394-4.908-3.591-8.738-3.591c-3.95,0-7.083,1.436-9.396,4.309c-2.314,2.873-3.471,6.583-3.471,11.132
		c0,10.174,4.528,15.262,13.586,15.262c3.551,0,6.763-0.578,9.636-1.736l-0.359-3.352c-2.554,1.278-5.427,1.916-8.619,1.916
		c-7.143,0-10.554-4.528-10.234-13.586h20.169c0.08-0.559,0.12-1.217,0.12-1.975C122.301,21.965,121.403,19.173,119.607,17.058
		 M89.743,0h-3.83v43.691h3.83V0z M75.199,0h-3.83v43.691h3.83V0z M56.646,38.118c-1.716,2-3.911,3-6.583,3
		c-3.073,0-5.446-1.09-7.123-3.269c-1.676-2.18-2.514-5.25-2.514-9.21c0-3.919,0.977-6.98,2.933-9.18
		c1.755-1.959,3.97-2.939,6.644-2.939c3.112,0,5.476,1.06,7.092,3.18c1.616,2.12,2.423,5.08,2.423,8.878
		C59.519,32.699,58.561,35.877,56.646,38.118 M59.467,16.759c-2.229-2.194-5.255-3.292-9.077-3.292c-4.3,0-7.724,1.536-10.271,4.608
		c-2.429,2.873-3.643,6.484-3.643,10.833c0,5.067,1.175,8.918,3.524,11.551c2.189,2.475,5.314,3.711,9.375,3.711
		c4.22,0,7.645-1.557,10.272-4.669c2.467-2.952,3.702-6.663,3.702-11.132C63.349,23.183,62.055,19.312,59.467,16.759 M30.671,38.484
		c-3.032,1.556-6.325,2.334-9.875,2.334c-10.056,0-15.083-5.705-15.083-17.117c0-5.147,1.117-9.256,3.352-12.33
		c2.553-3.471,6.264-5.206,11.132-5.206c3.352,0,6.663,0.538,9.936,1.615l0.418-3.591c-3.272-0.838-6.444-1.257-9.517-1.257
		c-6.583,0-11.551,2.075-14.903,6.225C3.1,12.868,1.583,17.936,1.583,24.359c0,6.265,1.526,11.133,4.579,14.604
		c3.053,3.471,7.551,5.207,13.497,5.207c4.108,0,7.919-0.758,11.431-2.275L30.671,38.484z"/>
</g>
<g>
	<path fill="#FFFFFF" d="M429.151,86.979c0.439-2.514,1.396-4.499,2.872-5.956c1.477-1.456,3.312-2.185,5.507-2.185
		c2.394,0,4.289,0.749,5.687,2.245c1.396,1.496,2.054,3.462,1.975,5.896H429.151z M446.508,79.558
		c-1.996-2.394-4.908-3.591-8.738-3.591c-3.95,0-7.083,1.436-9.397,4.309c-2.313,2.873-3.47,6.583-3.47,11.132
		c0,10.174,4.526,15.262,13.585,15.262c3.552,0,6.764-0.578,9.637-1.736l-0.359-3.352c-2.554,1.278-5.427,1.916-8.618,1.916
		c-7.144,0-10.555-4.528-10.234-13.586h20.169c0.08-0.559,0.12-1.217,0.12-1.975C449.201,84.465,448.304,81.673,446.508,79.558
		 M404.471,103.558c-2.465,0-4.532-0.299-6.202-0.897V91.827c0-3.112,0.754-5.905,2.266-8.379c1.789-2.952,4.154-4.429,7.098-4.429
		c5.09,0,7.635,3.77,7.635,11.311C415.267,99.149,411.667,103.558,404.471,103.558 M408.204,75.967c-2.396,0-4.51,0.658-6.345,1.975
		c-1.836,1.317-3.172,3.112-4.01,5.386l-0.12-0.06c0.359-1.556,0.539-3.83,0.539-6.823h-3.831v44.769h3.831v-15.083
		c1.71,0.24,3.68,0.359,5.907,0.359c4.616,0,8.276-1.426,10.981-4.28c2.706-2.852,4.058-6.932,4.058-12.239
		C419.215,80.635,415.544,75.967,408.204,75.967 M379.716,100.618c-1.717,2-3.912,3-6.585,3c-3.073,0-5.445-1.09-7.122-3.269
		c-1.676-2.18-2.514-5.25-2.514-9.21c0-3.919,0.978-6.98,2.933-9.18c1.756-1.959,3.97-2.939,6.644-2.939
		c3.112,0,5.477,1.06,7.093,3.18c1.616,2.12,2.424,5.08,2.424,8.878C382.588,95.199,381.63,98.377,379.716,100.618 M382.536,79.259
		c-2.23-2.194-5.256-3.292-9.077-3.292c-4.3,0-7.724,1.536-10.271,4.608c-2.429,2.873-3.644,6.484-3.644,10.833
		c0,5.067,1.176,8.918,3.525,11.551c2.188,2.475,5.314,3.711,9.375,3.711c4.219,0,7.644-1.557,10.271-4.669
		c2.468-2.952,3.702-6.663,3.702-11.132C386.418,85.683,385.123,81.812,382.536,79.259 M355.057,75.907
		c-4.828,0-7.96,2.793-9.396,8.379l-0.12-0.061c0.519-2.552,0.778-5.147,0.778-7.78h-3.83v29.746h3.83V94.394
		c0-9.851,2.776-14.776,8.33-14.776h1.605l0.179-3.651C355.954,75.927,355.496,75.907,355.057,75.907 M331.774,76.446h-3.83V90.69
		c0,3.751-0.895,6.853-2.683,9.307c-1.789,2.453-4.075,3.68-6.856,3.68c-2.226,0-3.816-0.697-4.77-2.095
		c-0.836-1.236-1.252-3.171-1.252-5.805V76.446h-3.831v20.708c0,6.384,2.993,9.576,8.978,9.576c5.347,0,8.938-2.493,10.772-7.481
		l0.121,0.06c-0.32,1.835-0.479,4.129-0.479,6.883h3.83V76.446z M299.037,103.019h-16.1v-16.16h15.322v-3.052h-15.322V68.845h16.1
		v-3.053h-19.931v40.399h19.931V103.019z M247.395,116.785c-1.949,1.317-4.614,1.976-7.996,1.976c-2.706,0-4.913-0.539-6.624-1.616
		c-1.711-1.078-2.566-2.614-2.566-4.608c0-2.633,1.531-4.749,4.595-6.344h8.355c4.773,0,7.16,1.795,7.16,5.387
		C250.319,113.732,249.344,115.468,247.395,116.785 M246.04,92.814c-1.537,1.376-3.621,2.065-6.255,2.065
		c-5.666,0-8.498-2.634-8.498-7.9c0-2.394,0.778-4.339,2.334-5.836c1.556-1.497,3.689-2.244,6.403-2.244
		c2.634,0,4.678,0.709,6.135,2.125c1.456,1.417,2.185,3.402,2.185,5.956C248.344,89.493,247.576,91.438,246.04,92.814
		 M251.546,105.024c-1.735-1.456-4.2-2.185-7.392-2.185h-6.104c-3.672,0-5.507-0.897-5.507-2.693c0-1.276,0.778-2.234,2.334-2.873
		c1.356,0.358,2.813,0.538,4.369,0.538c4.149,0,7.381-1.093,9.695-3.281c2.155-1.988,3.232-4.633,3.232-7.934
		c0-3.182-1.038-5.548-3.112-7.1h5.626v-3.052h-10.115c-1.676-0.319-3.112-0.479-4.31-0.479c-3.87,0-6.972,1.098-9.307,3.292
		c-2.334,2.194-3.501,4.908-3.501,8.14c0,4.069,1.476,6.982,4.429,8.738c-2.155,0.998-3.232,2.554-3.232,4.668
		c0,1.915,0.997,3.351,2.993,4.309c-3.512,1.835-5.267,4.528-5.267,8.08c0,2.792,1.107,4.947,3.322,6.464
		c2.214,1.516,5.217,2.274,9.007,2.274c4.468,0,8.16-1.028,11.073-3.083c2.912-2.055,4.369-4.638,4.369-7.75
		C254.149,108.505,253.281,106.48,251.546,105.024 M218.478,85.483c0-6.383-3.001-9.576-9.004-9.576
		c-5.363,0-8.965,2.494-10.806,7.481l-0.12-0.061c0.359-1.875,0.539-4.168,0.539-6.882h-3.831v29.746h3.831V91.947
		c0-3.75,0.894-6.853,2.683-9.306c1.788-2.455,4.073-3.681,6.856-3.681c2.226,0,3.816,0.698,4.77,2.094
		c0.834,1.238,1.252,3.172,1.252,5.806v19.332h3.83V85.483z M185.022,76.446h-3.831v29.746h3.831V76.446z M185.022,66.151
		c-0.519-0.518-1.158-0.778-1.916-0.778c-0.758,0-1.397,0.26-1.915,0.778c-0.519,0.52-0.778,1.158-0.778,1.916
		c0,0.758,0.259,1.397,0.778,1.916c0.517,0.519,1.156,0.778,1.915,0.778c0.758,0,1.397-0.259,1.916-0.778
		c0.518-0.519,0.778-1.158,0.778-1.916C185.801,67.309,185.54,66.67,185.022,66.151 M173.173,102.72
		c-1.308,0.359-2.774,0.539-4.4,0.539c-1.863,0-3.112-0.477-3.747-1.433c-0.634-0.955-0.951-2.845-0.951-5.672V79.498h9.098v-3.052
		h-9.098V65.373l-3.83,1.018v10.055h-6.764v3.052h6.764V98.01c0,3.106,0.521,5.276,1.563,6.51c1.082,1.393,3.046,2.09,5.893,2.09
		c1.764,0,3.587-0.179,5.472-0.539V102.72z M149.712,101.523c-2.315,1.158-4.949,1.735-7.901,1.735
		c-6.344,0-9.516-3.89-9.516-11.673c0-3.851,0.858-6.899,2.574-9.142c1.715-2.243,4.209-3.365,7.481-3.365
		c2.474,0,4.867,0.459,7.182,1.377l0.419-3.306c-2.236-0.668-4.629-1.003-7.182-1.003c-4.709,0-8.3,1.441-10.774,4.322
		c-2.474,2.883-3.71,6.847-3.71,11.894c0,9.419,4.25,14.128,12.748,14.128c3.072,0,6.084-0.571,9.037-1.715L149.712,101.523z
		 M102.251,86.979c0.438-2.514,1.396-4.499,2.873-5.956c1.476-1.456,3.311-2.185,5.506-2.185c2.394,0,4.289,0.749,5.686,2.245
		c1.396,1.496,2.054,3.462,1.975,5.896H102.251z M119.607,79.558c-1.996-2.394-4.908-3.591-8.738-3.591
		c-3.95,0-7.083,1.436-9.396,4.309c-2.314,2.873-3.471,6.583-3.471,11.132c0,10.174,4.528,15.262,13.586,15.262
		c3.551,0,6.763-0.578,9.636-1.736l-0.359-3.352c-2.554,1.278-5.427,1.916-8.619,1.916c-7.143,0-10.554-4.528-10.234-13.586h20.169
		c0.08-0.559,0.12-1.217,0.12-1.975C122.301,84.465,121.403,81.673,119.607,79.558 M89.743,62.5h-3.83v43.691h3.83V62.5z
		 M75.199,62.5h-3.83v43.691h3.83V62.5z M56.646,100.618c-1.716,2-3.911,3-6.583,3c-3.073,0-5.446-1.09-7.123-3.269
		c-1.676-2.18-2.514-5.25-2.514-9.21c0-3.919,0.977-6.98,2.933-9.18c1.755-1.959,3.97-2.939,6.644-2.939
		c3.112,0,5.476,1.06,7.092,3.18c1.616,2.12,2.423,5.08,2.423,8.878C59.519,95.199,58.561,98.377,56.646,100.618 M59.467,79.259
		c-2.229-2.194-5.255-3.292-9.077-3.292c-4.3,0-7.724,1.536-10.271,4.608c-2.429,2.873-3.643,6.484-3.643,10.833
		c0,5.067,1.175,8.918,3.524,11.551c2.189,2.475,5.314,3.711,9.375,3.711c4.22,0,7.645-1.557,10.272-4.669
		c2.467-2.952,3.702-6.663,3.702-11.132C63.349,85.683,62.055,81.812,59.467,79.259 M30.671,100.984
		c-3.032,1.556-6.325,2.334-9.875,2.334c-10.056,0-15.083-5.705-15.083-17.117c0-5.147,1.117-9.256,3.352-12.33
		c2.553-3.471,6.264-5.206,11.132-5.206c3.352,0,6.663,0.538,9.936,1.615l0.418-3.591c-3.272-0.838-6.444-1.257-9.517-1.257
		c-6.583,0-11.551,2.075-14.903,6.225C3.1,75.368,1.583,80.436,1.583,86.859c0,6.265,1.526,11.133,4.579,14.604
		c3.053,3.471,7.551,5.207,13.497,5.207c4.108,0,7.919-0.758,11.431-2.275L30.671,100.984z"/>
</g>
<g>
	<path fill="#FFFFFF" d="M429.151,149.479c0.439-2.514,1.396-4.499,2.872-5.956c1.477-1.456,3.312-2.185,5.507-2.185
		c2.394,0,4.289,0.749,5.687,2.245c1.396,1.496,2.054,3.462,1.975,5.896H429.151z M446.508,142.058
		c-1.996-2.394-4.908-3.591-8.738-3.591c-3.95,0-7.083,1.436-9.397,4.309c-2.313,2.873-3.47,6.583-3.47,11.132
		c0,10.174,4.526,15.262,13.585,15.262c3.552,0,6.764-0.578,9.637-1.736l-0.359-3.352c-2.554,1.278-5.427,1.916-8.618,1.916
		c-7.144,0-10.555-4.528-10.234-13.586h20.169c0.08-0.559,0.12-1.217,0.12-1.975C449.201,146.965,448.304,144.173,446.508,142.058
		 M404.471,166.058c-2.465,0-4.532-0.299-6.202-0.897v-10.833c0-3.112,0.754-5.905,2.266-8.379c1.789-2.952,4.154-4.429,7.098-4.429
		c5.09,0,7.635,3.77,7.635,11.311C415.267,161.649,411.667,166.058,404.471,166.058 M408.204,138.467
		c-2.396,0-4.51,0.658-6.345,1.975c-1.836,1.317-3.172,3.112-4.01,5.386l-0.12-0.06c0.359-1.556,0.539-3.83,0.539-6.823h-3.831
		v44.769h3.831v-15.083c1.71,0.24,3.68,0.359,5.907,0.359c4.616,0,8.276-1.426,10.981-4.28c2.706-2.852,4.058-6.932,4.058-12.239
		C419.215,143.135,415.544,138.467,408.204,138.467 M379.716,163.118c-1.717,2-3.912,3-6.585,3c-3.073,0-5.445-1.09-7.122-3.269
		c-1.676-2.18-2.514-5.25-2.514-9.21c0-3.919,0.978-6.98,2.933-9.18c1.756-1.959,3.97-2.939,6.644-2.939
		c3.112,0,5.477,1.06,7.093,3.18c1.616,2.12,2.424,5.08,2.424,8.878C382.588,157.699,381.63,160.877,379.716,163.118
		 M382.536,141.759c-2.23-2.194-5.256-3.292-9.077-3.292c-4.3,0-7.724,1.536-10.271,4.608c-2.429,2.873-3.644,6.484-3.644,10.833
		c0,5.067,1.176,8.918,3.525,11.551c2.188,2.475,5.314,3.711,9.375,3.711c4.219,0,7.644-1.557,10.271-4.669
		c2.468-2.952,3.702-6.663,3.702-11.132C386.418,148.183,385.123,144.312,382.536,141.759 M355.057,138.407
		c-4.828,0-7.96,2.793-9.396,8.379l-0.12-0.061c0.519-2.552,0.778-5.147,0.778-7.78h-3.83v29.746h3.83v-11.797
		c0-9.851,2.776-14.776,8.33-14.776h1.605l0.179-3.651C355.954,138.427,355.496,138.407,355.057,138.407 M331.774,138.946h-3.83
		v14.244c0,3.751-0.895,6.853-2.683,9.307c-1.789,2.453-4.075,3.68-6.856,3.68c-2.226,0-3.816-0.697-4.77-2.095
		c-0.836-1.236-1.252-3.171-1.252-5.805v-19.332h-3.831v20.708c0,6.384,2.993,9.576,8.978,9.576c5.347,0,8.938-2.493,10.772-7.481
		l0.121,0.06c-0.32,1.835-0.479,4.129-0.479,6.883h3.83V138.946z M299.037,165.519h-16.1v-16.16h15.322v-3.052h-15.322v-14.962h16.1
		v-3.053h-19.931v40.399h19.931V165.519z M247.395,179.285c-1.949,1.317-4.614,1.976-7.996,1.976c-2.706,0-4.913-0.539-6.624-1.616
		c-1.711-1.078-2.566-2.614-2.566-4.608c0-2.633,1.531-4.749,4.595-6.344h8.355c4.773,0,7.16,1.795,7.16,5.387
		C250.319,176.232,249.344,177.968,247.395,179.285 M246.04,155.314c-1.537,1.376-3.621,2.065-6.255,2.065
		c-5.666,0-8.498-2.634-8.498-7.9c0-2.394,0.778-4.339,2.334-5.836c1.556-1.497,3.689-2.244,6.403-2.244
		c2.634,0,4.678,0.709,6.135,2.125c1.456,1.417,2.185,3.402,2.185,5.956C248.344,151.993,247.576,153.938,246.04,155.314
		 M251.546,167.524c-1.735-1.456-4.2-2.185-7.392-2.185h-6.104c-3.672,0-5.507-0.897-5.507-2.693c0-1.276,0.778-2.234,2.334-2.873
		c1.356,0.358,2.813,0.538,4.369,0.538c4.149,0,7.381-1.093,9.695-3.281c2.155-1.988,3.232-4.633,3.232-7.934
		c0-3.182-1.038-5.548-3.112-7.1h5.626v-3.052h-10.115c-1.676-0.319-3.112-0.479-4.31-0.479c-3.87,0-6.972,1.098-9.307,3.292
		c-2.334,2.194-3.501,4.908-3.501,8.14c0,4.069,1.476,6.982,4.429,8.738c-2.155,0.998-3.232,2.554-3.232,4.668
		c0,1.915,0.997,3.351,2.993,4.309c-3.512,1.835-5.267,4.528-5.267,8.08c0,2.792,1.107,4.947,3.322,6.464
		c2.214,1.516,5.217,2.274,9.007,2.274c4.468,0,8.16-1.028,11.073-3.083c2.912-2.055,4.369-4.638,4.369-7.75
		C254.149,171.005,253.281,168.98,251.546,167.524 M218.478,147.983c0-6.383-3.001-9.576-9.004-9.576
		c-5.363,0-8.965,2.494-10.806,7.481l-0.12-0.061c0.359-1.875,0.539-4.168,0.539-6.882h-3.831v29.746h3.831v-14.245
		c0-3.75,0.894-6.853,2.683-9.306c1.788-2.455,4.073-3.681,6.856-3.681c2.226,0,3.816,0.698,4.77,2.094
		c0.834,1.238,1.252,3.172,1.252,5.806v19.332h3.83V147.983z M185.022,138.946h-3.831v29.746h3.831V138.946z M185.022,128.651
		c-0.519-0.518-1.158-0.778-1.916-0.778c-0.758,0-1.397,0.26-1.915,0.778c-0.519,0.52-0.778,1.158-0.778,1.916
		c0,0.758,0.259,1.397,0.778,1.916c0.517,0.519,1.156,0.778,1.915,0.778c0.758,0,1.397-0.259,1.916-0.778
		c0.518-0.519,0.778-1.158,0.778-1.916C185.801,129.809,185.54,129.17,185.022,128.651 M173.173,165.22
		c-1.308,0.359-2.774,0.539-4.4,0.539c-1.863,0-3.112-0.477-3.747-1.433c-0.634-0.955-0.951-2.845-0.951-5.672v-16.656h9.098v-3.052
		h-9.098v-11.073l-3.83,1.018v10.055h-6.764v3.052h6.764v18.513c0,3.106,0.521,5.276,1.563,6.51c1.082,1.393,3.046,2.09,5.893,2.09
		c1.764,0,3.587-0.179,5.472-0.539V165.22z M149.712,164.023c-2.315,1.158-4.949,1.735-7.901,1.735
		c-6.344,0-9.516-3.89-9.516-11.673c0-3.851,0.858-6.899,2.574-9.142c1.715-2.243,4.209-3.365,7.481-3.365
		c2.474,0,4.867,0.459,7.182,1.377l0.419-3.306c-2.236-0.668-4.629-1.003-7.182-1.003c-4.709,0-8.3,1.441-10.774,4.322
		c-2.474,2.883-3.71,6.847-3.71,11.894c0,9.419,4.25,14.128,12.748,14.128c3.072,0,6.084-0.571,9.037-1.715L149.712,164.023z
		 M102.251,149.479c0.438-2.514,1.396-4.499,2.873-5.956c1.476-1.456,3.311-2.185,5.506-2.185c2.394,0,4.289,0.749,5.686,2.245
		c1.396,1.496,2.054,3.462,1.975,5.896H102.251z M119.607,142.058c-1.996-2.394-4.908-3.591-8.738-3.591
		c-3.95,0-7.083,1.436-9.396,4.309c-2.314,2.873-3.471,6.583-3.471,11.132c0,10.174,4.528,15.262,13.586,15.262
		c3.551,0,6.763-0.578,9.636-1.736l-0.359-3.352c-2.554,1.278-5.427,1.916-8.619,1.916c-7.143,0-10.554-4.528-10.234-13.586h20.169
		c0.08-0.559,0.12-1.217,0.12-1.975C122.301,146.965,121.403,144.173,119.607,142.058 M89.743,125h-3.83v43.691h3.83V125z
		 M75.199,125h-3.83v43.691h3.83V125z M56.646,163.118c-1.716,2-3.911,3-6.583,3c-3.073,0-5.446-1.09-7.123-3.269
		c-1.676-2.18-2.514-5.25-2.514-9.21c0-3.919,0.977-6.98,2.933-9.18c1.755-1.959,3.97-2.939,6.644-2.939
		c3.112,0,5.476,1.06,7.092,3.18c1.616,2.12,2.423,5.08,2.423,8.878C59.519,157.699,58.561,160.877,56.646,163.118 M59.467,141.759
		c-2.229-2.194-5.255-3.292-9.077-3.292c-4.3,0-7.724,1.536-10.271,4.608c-2.429,2.873-3.643,6.484-3.643,10.833
		c0,5.067,1.175,8.918,3.524,11.551c2.189,2.475,5.314,3.711,9.375,3.711c4.22,0,7.645-1.557,10.272-4.669
		c2.467-2.952,3.702-6.663,3.702-11.132C63.349,148.183,62.055,144.312,59.467,141.759 M30.671,163.484
		c-3.032,1.556-6.325,2.334-9.875,2.334c-10.056,0-15.083-5.705-15.083-17.117c0-5.147,1.117-9.256,3.352-12.33
		c2.553-3.471,6.264-5.206,11.132-5.206c3.352,0,6.663,0.538,9.936,1.615l0.418-3.591c-3.272-0.838-6.444-1.257-9.517-1.257
		c-6.583,0-11.551,2.075-14.903,6.225c-3.032,3.711-4.549,8.779-4.549,15.202c0,6.265,1.526,11.133,4.579,14.604
		c3.053,3.471,7.551,5.207,13.497,5.207c4.108,0,7.919-0.758,11.431-2.275L30.671,163.484z"/>
</g>
<g>
	<path fill="#FFFFFF" d="M429.151,211.979c0.439-2.514,1.396-4.499,2.872-5.956c1.477-1.456,3.312-2.185,5.507-2.185
		c2.394,0,4.289,0.749,5.687,2.245c1.396,1.496,2.054,3.462,1.975,5.896H429.151z M446.508,204.558
		c-1.996-2.394-4.908-3.591-8.738-3.591c-3.95,0-7.083,1.436-9.397,4.309c-2.313,2.873-3.47,6.583-3.47,11.132
		c0,10.174,4.526,15.262,13.585,15.262c3.552,0,6.764-0.578,9.637-1.736l-0.359-3.352c-2.554,1.278-5.427,1.916-8.618,1.916
		c-7.144,0-10.555-4.528-10.234-13.586h20.169c0.08-0.559,0.12-1.217,0.12-1.975C449.201,209.465,448.304,206.673,446.508,204.558
		 M404.471,228.558c-2.465,0-4.532-0.299-6.202-0.897v-10.833c0-3.112,0.754-5.905,2.266-8.379c1.789-2.952,4.154-4.429,7.098-4.429
		c5.09,0,7.635,3.77,7.635,11.311C415.267,224.149,411.667,228.558,404.471,228.558 M408.204,200.967
		c-2.396,0-4.51,0.658-6.345,1.975c-1.836,1.317-3.172,3.112-4.01,5.386l-0.12-0.06c0.359-1.556,0.539-3.83,0.539-6.823h-3.831
		v44.769h3.831v-15.083c1.71,0.24,3.68,0.359,5.907,0.359c4.616,0,8.276-1.426,10.981-4.28c2.706-2.852,4.058-6.932,4.058-12.239
		C419.215,205.635,415.544,200.967,408.204,200.967 M379.716,225.618c-1.717,2-3.912,3-6.585,3c-3.073,0-5.445-1.09-7.122-3.269
		c-1.676-2.18-2.514-5.25-2.514-9.21c0-3.919,0.978-6.98,2.933-9.18c1.756-1.959,3.97-2.939,6.644-2.939
		c3.112,0,5.477,1.06,7.093,3.18c1.616,2.12,2.424,5.08,2.424,8.878C382.588,220.199,381.63,223.377,379.716,225.618
		 M382.536,204.259c-2.23-2.194-5.256-3.292-9.077-3.292c-4.3,0-7.724,1.536-10.271,4.608c-2.429,2.873-3.644,6.484-3.644,10.833
		c0,5.067,1.176,8.918,3.525,11.551c2.188,2.475,5.314,3.711,9.375,3.711c4.219,0,7.644-1.557,10.271-4.669
		c2.468-2.952,3.702-6.663,3.702-11.132C386.418,210.683,385.123,206.812,382.536,204.259 M355.057,200.907
		c-4.828,0-7.96,2.793-9.396,8.379l-0.12-0.061c0.519-2.552,0.778-5.147,0.778-7.78h-3.83v29.746h3.83v-11.797
		c0-9.851,2.776-14.776,8.33-14.776h1.605l0.179-3.651C355.954,200.927,355.496,200.907,355.057,200.907 M331.774,201.446h-3.83
		v14.244c0,3.751-0.895,6.853-2.683,9.307c-1.789,2.453-4.075,3.68-6.856,3.68c-2.226,0-3.816-0.697-4.77-2.095
		c-0.836-1.236-1.252-3.171-1.252-5.805v-19.332h-3.831v20.708c0,6.384,2.993,9.576,8.978,9.576c5.347,0,8.938-2.493,10.772-7.481
		l0.121,0.06c-0.32,1.835-0.479,4.129-0.479,6.883h3.83V201.446z M299.037,228.019h-16.1v-16.16h15.322v-3.052h-15.322v-14.962h16.1
		v-3.053h-19.931v40.399h19.931V228.019z M247.395,241.785c-1.949,1.317-4.614,1.976-7.996,1.976c-2.706,0-4.913-0.539-6.624-1.616
		c-1.711-1.078-2.566-2.614-2.566-4.608c0-2.633,1.531-4.749,4.595-6.344h8.355c4.773,0,7.16,1.795,7.16,5.387
		C250.319,238.732,249.344,240.468,247.395,241.785 M246.04,217.814c-1.537,1.376-3.621,2.065-6.255,2.065
		c-5.666,0-8.498-2.634-8.498-7.9c0-2.394,0.778-4.339,2.334-5.836c1.556-1.497,3.689-2.244,6.403-2.244
		c2.634,0,4.678,0.709,6.135,2.125c1.456,1.417,2.185,3.402,2.185,5.956C248.344,214.493,247.576,216.438,246.04,217.814
		 M251.546,230.024c-1.735-1.456-4.2-2.185-7.392-2.185h-6.104c-3.672,0-5.507-0.897-5.507-2.693c0-1.276,0.778-2.234,2.334-2.873
		c1.356,0.358,2.813,0.538,4.369,0.538c4.149,0,7.381-1.093,9.695-3.281c2.155-1.988,3.232-4.633,3.232-7.934
		c0-3.182-1.038-5.548-3.112-7.1h5.626v-3.052h-10.115c-1.676-0.319-3.112-0.479-4.31-0.479c-3.87,0-6.972,1.098-9.307,3.292
		c-2.334,2.194-3.501,4.908-3.501,8.14c0,4.069,1.476,6.982,4.429,8.738c-2.155,0.998-3.232,2.554-3.232,4.668
		c0,1.915,0.997,3.351,2.993,4.309c-3.512,1.835-5.267,4.528-5.267,8.08c0,2.792,1.107,4.947,3.322,6.464
		c2.214,1.516,5.217,2.274,9.007,2.274c4.468,0,8.16-1.028,11.073-3.083c2.912-2.055,4.369-4.638,4.369-7.75
		C254.149,233.505,253.281,231.48,251.546,230.024 M218.478,210.483c0-6.383-3.001-9.576-9.004-9.576
		c-5.363,0-8.965,2.494-10.806,7.481l-0.12-0.061c0.359-1.875,0.539-4.168,0.539-6.882h-3.831v29.746h3.831v-14.245
		c0-3.75,0.894-6.853,2.683-9.306c1.788-2.455,4.073-3.681,6.856-3.681c2.226,0,3.816,0.698,4.77,2.094
		c0.834,1.238,1.252,3.172,1.252,5.806v19.332h3.83V210.483z M185.022,201.446h-3.831v29.746h3.831V201.446z M185.022,191.151
		c-0.519-0.518-1.158-0.778-1.916-0.778c-0.758,0-1.397,0.26-1.915,0.778c-0.519,0.52-0.778,1.158-0.778,1.916
		c0,0.758,0.259,1.397,0.778,1.916c0.517,0.519,1.156,0.778,1.915,0.778c0.758,0,1.397-0.259,1.916-0.778
		c0.518-0.519,0.778-1.158,0.778-1.916C185.801,192.309,185.54,191.67,185.022,191.151 M173.173,227.72
		c-1.308,0.359-2.774,0.539-4.4,0.539c-1.863,0-3.112-0.477-3.747-1.433c-0.634-0.955-0.951-2.845-0.951-5.672v-16.656h9.098v-3.052
		h-9.098v-11.073l-3.83,1.018v10.055h-6.764v3.052h6.764v18.513c0,3.106,0.521,5.276,1.563,6.51c1.082,1.393,3.046,2.09,5.893,2.09
		c1.764,0,3.587-0.179,5.472-0.539V227.72z M149.712,226.523c-2.315,1.158-4.949,1.735-7.901,1.735
		c-6.344,0-9.516-3.89-9.516-11.673c0-3.851,0.858-6.899,2.574-9.142c1.715-2.243,4.209-3.365,7.481-3.365
		c2.474,0,4.867,0.459,7.182,1.377l0.419-3.306c-2.236-0.668-4.629-1.003-7.182-1.003c-4.709,0-8.3,1.441-10.774,4.322
		c-2.474,2.883-3.71,6.847-3.71,11.894c0,9.419,4.25,14.128,12.748,14.128c3.072,0,6.084-0.571,9.037-1.715L149.712,226.523z
		 M102.251,211.979c0.438-2.514,1.396-4.499,2.873-5.956c1.476-1.456,3.311-2.185,5.506-2.185c2.394,0,4.289,0.749,5.686,2.245
		c1.396,1.496,2.054,3.462,1.975,5.896H102.251z M119.607,204.558c-1.996-2.394-4.908-3.591-8.738-3.591
		c-3.95,0-7.083,1.436-9.396,4.309c-2.314,2.873-3.471,6.583-3.471,11.132c0,10.174,4.528,15.262,13.586,15.262
		c3.551,0,6.763-0.578,9.636-1.736l-0.359-3.352c-2.554,1.278-5.427,1.916-8.619,1.916c-7.143,0-10.554-4.528-10.234-13.586h20.169
		c0.08-0.559,0.12-1.217,0.12-1.975C122.301,209.465,121.403,206.673,119.607,204.558 M89.743,187.5h-3.83v43.691h3.83V187.5z
		 M75.199,187.5h-3.83v43.691h3.83V187.5z M56.646,225.618c-1.716,2-3.911,3-6.583,3c-3.073,0-5.446-1.09-7.123-3.269
		c-1.676-2.18-2.514-5.25-2.514-9.21c0-3.919,0.977-6.98,2.933-9.18c1.755-1.959,3.97-2.939,6.644-2.939
		c3.112,0,5.476,1.06,7.092,3.18c1.616,2.12,2.423,5.08,2.423,8.878C59.519,220.199,58.561,223.377,56.646,225.618 M59.467,204.259
		c-2.229-2.194-5.255-3.292-9.077-3.292c-4.3,0-7.724,1.536-10.271,4.608c-2.429,2.873-3.643,6.484-3.643,10.833
		c0,5.067,1.175,8.918,3.524,11.551c2.189,2.475,5.314,3.711,9.375,3.711c4.22,0,7.645-1.557,10.272-4.669
		c2.467-2.952,3.702-6.663,3.702-11.132C63.349,210.683,62.055,206.812,59.467,204.259 M30.671,225.984
		c-3.032,1.556-6.325,2.334-9.875,2.334c-10.056,0-15.083-5.705-15.083-17.117c0-5.147,1.117-9.256,3.352-12.33
		c2.553-3.471,6.264-5.206,11.132-5.206c3.352,0,6.663,0.538,9.936,1.615l0.418-3.591c-3.272-0.838-6.444-1.257-9.517-1.257
		c-6.583,0-11.551,2.075-14.903,6.225c-3.032,3.711-4.549,8.779-4.549,15.202c0,6.265,1.526,11.133,4.579,14.604
		c3.053,3.471,7.551,5.207,13.497,5.207c4.108,0,7.919-0.758,11.431-2.275L30.671,225.984z"/>
</g>
<g>
	<path fill="#FFFFFF" d="M429.151,274.479c0.439-2.514,1.396-4.499,2.872-5.956c1.477-1.456,3.312-2.185,5.507-2.185
		c2.394,0,4.289,0.749,5.687,2.245c1.396,1.496,2.054,3.462,1.975,5.896H429.151z M446.508,267.058
		c-1.996-2.394-4.908-3.591-8.738-3.591c-3.95,0-7.083,1.436-9.397,4.309c-2.313,2.873-3.47,6.583-3.47,11.132
		c0,10.174,4.526,15.262,13.585,15.262c3.552,0,6.764-0.578,9.637-1.736l-0.359-3.352c-2.554,1.278-5.427,1.916-8.618,1.916
		c-7.144,0-10.555-4.528-10.234-13.586h20.169c0.08-0.559,0.12-1.217,0.12-1.975C449.201,271.965,448.304,269.173,446.508,267.058
		 M404.471,291.058c-2.465,0-4.532-0.299-6.202-0.897v-10.833c0-3.112,0.754-5.905,2.266-8.379c1.789-2.952,4.154-4.429,7.098-4.429
		c5.09,0,7.635,3.77,7.635,11.311C415.267,286.649,411.667,291.058,404.471,291.058 M408.204,263.467
		c-2.396,0-4.51,0.658-6.345,1.975c-1.836,1.317-3.172,3.112-4.01,5.386l-0.12-0.06c0.359-1.556,0.539-3.83,0.539-6.823h-3.831
		v44.769h3.831v-15.083c1.71,0.24,3.68,0.359,5.907,0.359c4.616,0,8.276-1.426,10.981-4.28c2.706-2.852,4.058-6.932,4.058-12.239
		C419.215,268.135,415.544,263.467,408.204,263.467 M379.716,288.118c-1.717,2-3.912,3-6.585,3c-3.073,0-5.445-1.09-7.122-3.269
		c-1.676-2.18-2.514-5.25-2.514-9.21c0-3.919,0.978-6.98,2.933-9.18c1.756-1.959,3.97-2.939,6.644-2.939
		c3.112,0,5.477,1.06,7.093,3.18c1.616,2.12,2.424,5.08,2.424,8.878C382.588,282.699,381.63,285.877,379.716,288.118
		 M382.536,266.759c-2.23-2.194-5.256-3.292-9.077-3.292c-4.3,0-7.724,1.536-10.271,4.608c-2.429,2.873-3.644,6.484-3.644,10.833
		c0,5.067,1.176,8.918,3.525,11.551c2.188,2.475,5.314,3.711,9.375,3.711c4.219,0,7.644-1.557,10.271-4.669
		c2.468-2.952,3.702-6.663,3.702-11.132C386.418,273.183,385.123,269.312,382.536,266.759 M355.057,263.407
		c-4.828,0-7.96,2.793-9.396,8.379l-0.12-0.061c0.519-2.552,0.778-5.147,0.778-7.78h-3.83v29.746h3.83v-11.797
		c0-9.851,2.776-14.776,8.33-14.776h1.605l0.179-3.651C355.954,263.427,355.496,263.407,355.057,263.407 M331.774,263.946h-3.83
		v14.244c0,3.751-0.895,6.853-2.683,9.307c-1.789,2.453-4.075,3.68-6.856,3.68c-2.226,0-3.816-0.697-4.77-2.095
		c-0.836-1.236-1.252-3.171-1.252-5.805v-19.332h-3.831v20.708c0,6.384,2.993,9.576,8.978,9.576c5.347,0,8.938-2.493,10.772-7.481
		l0.121,0.06c-0.32,1.835-0.479,4.129-0.479,6.883h3.83V263.946z M299.037,290.519h-16.1v-16.16h15.322v-3.052h-15.322v-14.962h16.1
		v-3.053h-19.931v40.399h19.931V290.519z M247.395,304.285c-1.949,1.317-4.614,1.976-7.996,1.976c-2.706,0-4.913-0.539-6.624-1.616
		c-1.711-1.078-2.566-2.614-2.566-4.608c0-2.633,1.531-4.749,4.595-6.344h8.355c4.773,0,7.16,1.795,7.16,5.387
		C250.319,301.232,249.344,302.968,247.395,304.285 M246.04,280.314c-1.537,1.376-3.621,2.065-6.255,2.065
		c-5.666,0-8.498-2.634-8.498-7.9c0-2.394,0.778-4.339,2.334-5.836c1.556-1.497,3.689-2.244,6.403-2.244
		c2.634,0,4.678,0.709,6.135,2.125c1.456,1.417,2.185,3.402,2.185,5.956C248.344,276.993,247.576,278.938,246.04,280.314
		 M251.546,292.524c-1.735-1.456-4.2-2.185-7.392-2.185h-6.104c-3.672,0-5.507-0.897-5.507-2.693c0-1.276,0.778-2.234,2.334-2.873
		c1.356,0.358,2.813,0.538,4.369,0.538c4.149,0,7.381-1.093,9.695-3.281c2.155-1.988,3.232-4.633,3.232-7.934
		c0-3.182-1.038-5.548-3.112-7.1h5.626v-3.052h-10.115c-1.676-0.319-3.112-0.479-4.31-0.479c-3.87,0-6.972,1.098-9.307,3.292
		c-2.334,2.194-3.501,4.908-3.501,8.14c0,4.069,1.476,6.982,4.429,8.738c-2.155,0.998-3.232,2.554-3.232,4.668
		c0,1.915,0.997,3.351,2.993,4.309c-3.512,1.835-5.267,4.528-5.267,8.08c0,2.792,1.107,4.947,3.322,6.464
		c2.214,1.516,5.217,2.274,9.007,2.274c4.468,0,8.16-1.028,11.073-3.083c2.912-2.055,4.369-4.638,4.369-7.75
		C254.149,296.005,253.281,293.98,251.546,292.524 M218.478,272.983c0-6.383-3.001-9.576-9.004-9.576
		c-5.363,0-8.965,2.494-10.806,7.481l-0.12-0.061c0.359-1.875,0.539-4.168,0.539-6.882h-3.831v29.746h3.831v-14.245
		c0-3.75,0.894-6.853,2.683-9.306c1.788-2.455,4.073-3.681,6.856-3.681c2.226,0,3.816,0.698,4.77,2.094
		c0.834,1.238,1.252,3.172,1.252,5.806v19.332h3.83V272.983z M185.022,263.946h-3.831v29.746h3.831V263.946z M185.022,253.651
		c-0.519-0.518-1.158-0.778-1.916-0.778c-0.758,0-1.397,0.26-1.915,0.778c-0.519,0.52-0.778,1.158-0.778,1.916
		c0,0.758,0.259,1.397,0.778,1.916c0.517,0.519,1.156,0.778,1.915,0.778c0.758,0,1.397-0.259,1.916-0.778
		c0.518-0.519,0.778-1.158,0.778-1.916C185.801,254.809,185.54,254.17,185.022,253.651 M173.173,290.22
		c-1.308,0.359-2.774,0.539-4.4,0.539c-1.863,0-3.112-0.477-3.747-1.433c-0.634-0.955-0.951-2.845-0.951-5.672v-16.656h9.098v-3.052
		h-9.098v-11.073l-3.83,1.018v10.055h-6.764v3.052h6.764v18.513c0,3.106,0.521,5.276,1.563,6.51c1.082,1.393,3.046,2.09,5.893,2.09
		c1.764,0,3.587-0.179,5.472-0.539V290.22z M149.712,289.023c-2.315,1.158-4.949,1.735-7.901,1.735
		c-6.344,0-9.516-3.89-9.516-11.673c0-3.851,0.858-6.899,2.574-9.142c1.715-2.243,4.209-3.365,7.481-3.365
		c2.474,0,4.867,0.459,7.182,1.377l0.419-3.306c-2.236-0.668-4.629-1.003-7.182-1.003c-4.709,0-8.3,1.441-10.774,4.322
		c-2.474,2.883-3.71,6.847-3.71,11.894c0,9.419,4.25,14.128,12.748,14.128c3.072,0,6.084-0.571,9.037-1.715L149.712,289.023z
		 M102.251,274.479c0.438-2.514,1.396-4.499,2.873-5.956c1.476-1.456,3.311-2.185,5.506-2.185c2.394,0,4.289,0.749,5.686,2.245
		c1.396,1.496,2.054,3.462,1.975,5.896H102.251z M119.607,267.058c-1.996-2.394-4.908-3.591-8.738-3.591
		c-3.95,0-7.083,1.436-9.396,4.309c-2.314,2.873-3.471,6.583-3.471,11.132c0,10.174,4.528,15.262,13.586,15.262
		c3.551,0,6.763-0.578,9.636-1.736l-0.359-3.352c-2.554,1.278-5.427,1.916-8.619,1.916c-7.143,0-10.554-4.528-10.234-13.586h20.169
		c0.08-0.559,0.12-1.217,0.12-1.975C122.301,271.965,121.403,269.173,119.607,267.058 M89.743,250h-3.83v43.691h3.83V250z
		 M75.199,250h-3.83v43.691h3.83V250z M56.646,288.118c-1.716,2-3.911,3-6.583,3c-3.073,0-5.446-1.09-7.123-3.269
		c-1.676-2.18-2.514-5.25-2.514-9.21c0-3.919,0.977-6.98,2.933-9.18c1.755-1.959,3.97-2.939,6.644-2.939
		c3.112,0,5.476,1.06,7.092,3.18c1.616,2.12,2.423,5.08,2.423,8.878C59.519,282.699,58.561,285.877,56.646,288.118 M59.467,266.759
		c-2.229-2.194-5.255-3.292-9.077-3.292c-4.3,0-7.724,1.536-10.271,4.608c-2.429,2.873-3.643,6.484-3.643,10.833
		c0,5.067,1.175,8.918,3.524,11.551c2.189,2.475,5.314,3.711,9.375,3.711c4.22,0,7.645-1.557,10.272-4.669
		c2.467-2.952,3.702-6.663,3.702-11.132C63.349,273.183,62.055,269.312,59.467,266.759 M30.671,288.484
		c-3.032,1.556-6.325,2.334-9.875,2.334c-10.056,0-15.083-5.705-15.083-17.117c0-5.147,1.117-9.256,3.352-12.33
		c2.553-3.471,6.264-5.206,11.132-5.206c3.352,0,6.663,0.538,9.936,1.615l0.418-3.591c-3.272-0.838-6.444-1.257-9.517-1.257
		c-6.583,0-11.551,2.075-14.903,6.225c-3.032,3.711-4.549,8.779-4.549,15.202c0,6.265,1.526,11.133,4.579,14.604
		c3.053,3.471,7.551,5.207,13.497,5.207c4.108,0,7.919-0.758,11.431-2.275L30.671,288.484z"/>
</g>
<g>
	<path fill="#FFFFFF" d="M429.151,336.979c0.439-2.514,1.396-4.499,2.872-5.956c1.477-1.456,3.312-2.185,5.507-2.185
		c2.394,0,4.289,0.749,5.687,2.245c1.396,1.496,2.054,3.462,1.975,5.896H429.151z M446.508,329.558
		c-1.996-2.394-4.908-3.591-8.738-3.591c-3.95,0-7.083,1.436-9.397,4.309c-2.313,2.873-3.47,6.583-3.47,11.132
		c0,10.174,4.526,15.262,13.585,15.262c3.552,0,6.764-0.578,9.637-1.736l-0.359-3.352c-2.554,1.278-5.427,1.916-8.618,1.916
		c-7.144,0-10.555-4.528-10.234-13.586h20.169c0.08-0.559,0.12-1.217,0.12-1.975C449.201,334.465,448.304,331.673,446.508,329.558
		 M404.471,353.558c-2.465,0-4.532-0.299-6.202-0.897v-10.833c0-3.112,0.754-5.905,2.266-8.379c1.789-2.952,4.154-4.429,7.098-4.429
		c5.09,0,7.635,3.77,7.635,11.311C415.267,349.149,411.667,353.558,404.471,353.558 M408.204,325.967
		c-2.396,0-4.51,0.658-6.345,1.975c-1.836,1.317-3.172,3.112-4.01,5.386l-0.12-0.06c0.359-1.556,0.539-3.83,0.539-6.823h-3.831
		v44.769h3.831v-15.083c1.71,0.24,3.68,0.359,5.907,0.359c4.616,0,8.276-1.426,10.981-4.28c2.706-2.852,4.058-6.932,4.058-12.239
		C419.215,330.635,415.544,325.967,408.204,325.967 M379.716,350.618c-1.717,2-3.912,3-6.585,3c-3.073,0-5.445-1.09-7.122-3.269
		c-1.676-2.18-2.514-5.25-2.514-9.21c0-3.919,0.978-6.98,2.933-9.18c1.756-1.959,3.97-2.939,6.644-2.939
		c3.112,0,5.477,1.06,7.093,3.18c1.616,2.12,2.424,5.08,2.424,8.878C382.588,345.199,381.63,348.377,379.716,350.618
		 M382.536,329.259c-2.23-2.194-5.256-3.292-9.077-3.292c-4.3,0-7.724,1.536-10.271,4.608c-2.429,2.873-3.644,6.484-3.644,10.833
		c0,5.067,1.176,8.918,3.525,11.551c2.188,2.475,5.314,3.711,9.375,3.711c4.219,0,7.644-1.557,10.271-4.669
		c2.468-2.952,3.702-6.663,3.702-11.132C386.418,335.683,385.123,331.812,382.536,329.259 M355.057,325.907
		c-4.828,0-7.96,2.793-9.396,8.379l-0.12-0.061c0.519-2.552,0.778-5.147,0.778-7.78h-3.83v29.746h3.83v-11.797
		c0-9.851,2.776-14.776,8.33-14.776h1.605l0.179-3.651C355.954,325.927,355.496,325.907,355.057,325.907 M331.774,326.446h-3.83
		v14.244c0,3.751-0.895,6.853-2.683,9.307c-1.789,2.453-4.075,3.68-6.856,3.68c-2.226,0-3.816-0.697-4.77-2.095
		c-0.836-1.236-1.252-3.171-1.252-5.805v-19.332h-3.831v20.708c0,6.384,2.993,9.576,8.978,9.576c5.347,0,8.938-2.493,10.772-7.481
		l0.121,0.06c-0.32,1.835-0.479,4.129-0.479,6.883h3.83V326.446z M299.037,353.019h-16.1v-16.16h15.322v-3.052h-15.322v-14.962h16.1
		v-3.053h-19.931v40.399h19.931V353.019z M247.395,366.785c-1.949,1.317-4.614,1.976-7.996,1.976c-2.706,0-4.913-0.539-6.624-1.616
		c-1.711-1.078-2.566-2.614-2.566-4.608c0-2.633,1.531-4.749,4.595-6.344h8.355c4.773,0,7.16,1.795,7.16,5.387
		C250.319,363.732,249.344,365.468,247.395,366.785 M246.04,342.814c-1.537,1.376-3.621,2.065-6.255,2.065
		c-5.666,0-8.498-2.634-8.498-7.9c0-2.394,0.778-4.339,2.334-5.836c1.556-1.497,3.689-2.244,6.403-2.244
		c2.634,0,4.678,0.709,6.135,2.125c1.456,1.417,2.185,3.402,2.185,5.956C248.344,339.493,247.576,341.438,246.04,342.814
		 M251.546,355.024c-1.735-1.456-4.2-2.185-7.392-2.185h-6.104c-3.672,0-5.507-0.897-5.507-2.693c0-1.276,0.778-2.234,2.334-2.873
		c1.356,0.358,2.813,0.538,4.369,0.538c4.149,0,7.381-1.093,9.695-3.281c2.155-1.988,3.232-4.633,3.232-7.934
		c0-3.182-1.038-5.548-3.112-7.1h5.626v-3.052h-10.115c-1.676-0.319-3.112-0.479-4.31-0.479c-3.87,0-6.972,1.098-9.307,3.292
		c-2.334,2.194-3.501,4.908-3.501,8.14c0,4.069,1.476,6.982,4.429,8.738c-2.155,0.998-3.232,2.554-3.232,4.668
		c0,1.915,0.997,3.351,2.993,4.309c-3.512,1.835-5.267,4.528-5.267,8.08c0,2.792,1.107,4.947,3.322,6.464
		c2.214,1.516,5.217,2.274,9.007,2.274c4.468,0,8.16-1.028,11.073-3.083c2.912-2.055,4.369-4.638,4.369-7.75
		C254.149,358.505,253.281,356.48,251.546,355.024 M218.478,335.483c0-6.383-3.001-9.576-9.004-9.576
		c-5.363,0-8.965,2.494-10.806,7.481l-0.12-0.061c0.359-1.875,0.539-4.168,0.539-6.882h-3.831v29.746h3.831v-14.245
		c0-3.75,0.894-6.853,2.683-9.306c1.788-2.455,4.073-3.681,6.856-3.681c2.226,0,3.816,0.698,4.77,2.094
		c0.834,1.238,1.252,3.172,1.252,5.806v19.332h3.83V335.483z M185.022,326.446h-3.831v29.746h3.831V326.446z M185.022,316.151
		c-0.519-0.518-1.158-0.778-1.916-0.778c-0.758,0-1.397,0.26-1.915,0.778c-0.519,0.52-0.778,1.158-0.778,1.916
		c0,0.758,0.259,1.397,0.778,1.916c0.517,0.519,1.156,0.778,1.915,0.778c0.758,0,1.397-0.259,1.916-0.778
		c0.518-0.519,0.778-1.158,0.778-1.916C185.801,317.309,185.54,316.67,185.022,316.151 M173.173,352.72
		c-1.308,0.359-2.774,0.539-4.4,0.539c-1.863,0-3.112-0.477-3.747-1.433c-0.634-0.955-0.951-2.845-0.951-5.672v-16.656h9.098v-3.052
		h-9.098v-11.073l-3.83,1.018v10.055h-6.764v3.052h6.764v18.513c0,3.106,0.521,5.276,1.563,6.51c1.082,1.393,3.046,2.09,5.893,2.09
		c1.764,0,3.587-0.179,5.472-0.539V352.72z M149.712,351.523c-2.315,1.158-4.949,1.735-7.901,1.735
		c-6.344,0-9.516-3.89-9.516-11.673c0-3.851,0.858-6.899,2.574-9.142c1.715-2.243,4.209-3.365,7.481-3.365
		c2.474,0,4.867,0.459,7.182,1.377l0.419-3.306c-2.236-0.668-4.629-1.003-7.182-1.003c-4.709,0-8.3,1.441-10.774,4.322
		c-2.474,2.883-3.71,6.847-3.71,11.894c0,9.419,4.25,14.128,12.748,14.128c3.072,0,6.084-0.571,9.037-1.715L149.712,351.523z
		 M102.251,336.979c0.438-2.514,1.396-4.499,2.873-5.956c1.476-1.456,3.311-2.185,5.506-2.185c2.394,0,4.289,0.749,5.686,2.245
		c1.396,1.496,2.054,3.462,1.975,5.896H102.251z M119.607,329.558c-1.996-2.394-4.908-3.591-8.738-3.591
		c-3.95,0-7.083,1.436-9.396,4.309c-2.314,2.873-3.471,6.583-3.471,11.132c0,10.174,4.528,15.262,13.586,15.262
		c3.551,0,6.763-0.578,9.636-1.736l-0.359-3.352c-2.554,1.278-5.427,1.916-8.619,1.916c-7.143,0-10.554-4.528-10.234-13.586h20.169
		c0.08-0.559,0.12-1.217,0.12-1.975C122.301,334.465,121.403,331.673,119.607,329.558 M89.743,312.5h-3.83v43.691h3.83V312.5z
		 M75.199,312.5h-3.83v43.691h3.83V312.5z M56.646,350.618c-1.716,2-3.911,3-6.583,3c-3.073,0-5.446-1.09-7.123-3.269
		c-1.676-2.18-2.514-5.25-2.514-9.21c0-3.919,0.977-6.98,2.933-9.18c1.755-1.959,3.97-2.939,6.644-2.939
		c3.112,0,5.476,1.06,7.092,3.18c1.616,2.12,2.423,5.08,2.423,8.878C59.519,345.199,58.561,348.377,56.646,350.618 M59.467,329.259
		c-2.229-2.194-5.255-3.292-9.077-3.292c-4.3,0-7.724,1.536-10.271,4.608c-2.429,2.873-3.643,6.484-3.643,10.833
		c0,5.067,1.175,8.918,3.524,11.551c2.189,2.475,5.314,3.711,9.375,3.711c4.22,0,7.645-1.557,10.272-4.669
		c2.467-2.952,3.702-6.663,3.702-11.132C63.349,335.683,62.055,331.812,59.467,329.259 M30.671,350.984
		c-3.032,1.556-6.325,2.334-9.875,2.334c-10.056,0-15.083-5.705-15.083-17.117c0-5.147,1.117-9.256,3.352-12.33
		c2.553-3.471,6.264-5.206,11.132-5.206c3.352,0,6.663,0.538,9.936,1.615l0.418-3.591c-3.272-0.838-6.444-1.257-9.517-1.257
		c-6.583,0-11.551,2.075-14.903,6.225c-3.032,3.711-4.549,8.779-4.549,15.202c0,6.265,1.526,11.133,4.579,14.604
		c3.053,3.471,7.551,5.207,13.497,5.207c4.108,0,7.919-0.758,11.431-2.275L30.671,350.984z"/>
</g>
<g>
	<path fill="#FFFFFF" d="M429.151,399.479c0.439-2.514,1.396-4.499,2.872-5.956c1.477-1.456,3.312-2.185,5.507-2.185
		c2.394,0,4.289,0.749,5.687,2.245c1.396,1.496,2.054,3.462,1.975,5.896H429.151z M446.508,392.058
		c-1.996-2.394-4.908-3.591-8.738-3.591c-3.95,0-7.083,1.436-9.397,4.309c-2.313,2.873-3.47,6.583-3.47,11.132
		c0,10.174,4.526,15.262,13.585,15.262c3.552,0,6.764-0.578,9.637-1.736l-0.359-3.352c-2.554,1.278-5.427,1.916-8.618,1.916
		c-7.144,0-10.555-4.528-10.234-13.586h20.169c0.08-0.559,0.12-1.217,0.12-1.975C449.201,396.965,448.304,394.173,446.508,392.058
		 M404.471,416.058c-2.465,0-4.532-0.299-6.202-0.897v-10.833c0-3.112,0.754-5.905,2.266-8.379c1.789-2.952,4.154-4.429,7.098-4.429
		c5.09,0,7.635,3.77,7.635,11.311C415.267,411.649,411.667,416.058,404.471,416.058 M408.204,388.467
		c-2.396,0-4.51,0.658-6.345,1.975c-1.836,1.317-3.172,3.112-4.01,5.386l-0.12-0.06c0.359-1.556,0.539-3.83,0.539-6.823h-3.831
		v44.769h3.831v-15.083c1.71,0.24,3.68,0.359,5.907,0.359c4.616,0,8.276-1.426,10.981-4.28c2.706-2.852,4.058-6.932,4.058-12.239
		C419.215,393.135,415.544,388.467,408.204,388.467 M379.716,413.118c-1.717,2-3.912,3-6.585,3c-3.073,0-5.445-1.09-7.122-3.269
		c-1.676-2.18-2.514-5.25-2.514-9.21c0-3.919,0.978-6.98,2.933-9.18c1.756-1.959,3.97-2.939,6.644-2.939
		c3.112,0,5.477,1.06,7.093,3.18c1.616,2.12,2.424,5.08,2.424,8.878C382.588,407.699,381.63,410.877,379.716,413.118
		 M382.536,391.759c-2.23-2.194-5.256-3.292-9.077-3.292c-4.3,0-7.724,1.536-10.271,4.608c-2.429,2.873-3.644,6.484-3.644,10.833
		c0,5.067,1.176,8.918,3.525,11.551c2.188,2.475,5.314,3.711,9.375,3.711c4.219,0,7.644-1.557,10.271-4.669
		c2.468-2.952,3.702-6.663,3.702-11.132C386.418,398.183,385.123,394.312,382.536,391.759 M355.057,388.407
		c-4.828,0-7.96,2.793-9.396,8.379l-0.12-0.061c0.519-2.552,0.778-5.147,0.778-7.78h-3.83v29.746h3.83v-11.797
		c0-9.851,2.776-14.776,8.33-14.776h1.605l0.179-3.651C355.954,388.427,355.496,388.407,355.057,388.407 M331.774,388.946h-3.83
		v14.244c0,3.751-0.895,6.853-2.683,9.307c-1.789,2.453-4.075,3.68-6.856,3.68c-2.226,0-3.816-0.697-4.77-2.095
		c-0.836-1.236-1.252-3.171-1.252-5.805v-19.332h-3.831v20.708c0,6.384,2.993,9.576,8.978,9.576c5.347,0,8.938-2.493,10.772-7.481
		l0.121,0.06c-0.32,1.835-0.479,4.129-0.479,6.883h3.83V388.946z M299.037,415.519h-16.1v-16.16h15.322v-3.052h-15.322v-14.962h16.1
		v-3.053h-19.931v40.399h19.931V415.519z M247.395,429.285c-1.949,1.316-4.614,1.975-7.996,1.975c-2.706,0-4.913-0.539-6.624-1.615
		c-1.711-1.078-2.566-2.614-2.566-4.609c0-2.633,1.531-4.749,4.595-6.344h8.355c4.773,0,7.16,1.795,7.16,5.387
		C250.319,426.232,249.344,427.969,247.395,429.285 M246.04,405.314c-1.537,1.376-3.621,2.065-6.255,2.065
		c-5.666,0-8.498-2.634-8.498-7.9c0-2.394,0.778-4.339,2.334-5.836c1.556-1.497,3.689-2.244,6.403-2.244
		c2.634,0,4.678,0.709,6.135,2.125c1.456,1.417,2.185,3.402,2.185,5.956C248.344,401.993,247.576,403.938,246.04,405.314
		 M251.546,417.524c-1.735-1.456-4.2-2.185-7.392-2.185h-6.104c-3.672,0-5.507-0.897-5.507-2.693c0-1.276,0.778-2.234,2.334-2.873
		c1.356,0.358,2.813,0.538,4.369,0.538c4.149,0,7.381-1.093,9.695-3.281c2.155-1.988,3.232-4.633,3.232-7.934
		c0-3.182-1.038-5.548-3.112-7.1h5.626v-3.052h-10.115c-1.676-0.319-3.112-0.479-4.31-0.479c-3.87,0-6.972,1.098-9.307,3.292
		c-2.334,2.194-3.501,4.908-3.501,8.14c0,4.069,1.476,6.982,4.429,8.738c-2.155,0.998-3.232,2.554-3.232,4.668
		c0,1.915,0.997,3.351,2.993,4.309c-3.512,1.835-5.267,4.528-5.267,8.08c0,2.793,1.107,4.947,3.322,6.465
		c2.214,1.516,5.217,2.273,9.007,2.273c4.468,0,8.16-1.027,11.073-3.082c2.912-2.055,4.369-4.639,4.369-7.75
		C254.149,421.005,253.281,418.98,251.546,417.524 M218.478,397.983c0-6.383-3.001-9.576-9.004-9.576
		c-5.363,0-8.965,2.494-10.806,7.481l-0.12-0.061c0.359-1.875,0.539-4.168,0.539-6.882h-3.831v29.746h3.831v-14.245
		c0-3.75,0.894-6.853,2.683-9.306c1.788-2.455,4.073-3.681,6.856-3.681c2.226,0,3.816,0.698,4.77,2.094
		c0.834,1.238,1.252,3.172,1.252,5.806v19.332h3.83V397.983z M185.022,388.946h-3.831v29.746h3.831V388.946z M185.022,378.651
		c-0.519-0.518-1.158-0.778-1.916-0.778c-0.758,0-1.397,0.26-1.915,0.778c-0.519,0.52-0.778,1.158-0.778,1.916
		c0,0.758,0.259,1.397,0.778,1.916c0.517,0.519,1.156,0.778,1.915,0.778c0.758,0,1.397-0.259,1.916-0.778
		c0.518-0.519,0.778-1.158,0.778-1.916C185.801,379.809,185.54,379.17,185.022,378.651 M173.173,415.22
		c-1.308,0.359-2.774,0.539-4.4,0.539c-1.863,0-3.112-0.477-3.747-1.433c-0.634-0.955-0.951-2.845-0.951-5.672v-16.656h9.098v-3.052
		h-9.098v-11.073l-3.83,1.018v10.055h-6.764v3.052h6.764v18.513c0,3.106,0.521,5.276,1.563,6.51c1.082,1.393,3.046,2.09,5.893,2.09
		c1.764,0,3.587-0.179,5.472-0.539V415.22z M149.712,414.023c-2.315,1.158-4.949,1.735-7.901,1.735
		c-6.344,0-9.516-3.89-9.516-11.673c0-3.851,0.858-6.899,2.574-9.142c1.715-2.243,4.209-3.365,7.481-3.365
		c2.474,0,4.867,0.459,7.182,1.377l0.419-3.306c-2.236-0.668-4.629-1.003-7.182-1.003c-4.709,0-8.3,1.441-10.774,4.322
		c-2.474,2.883-3.71,6.847-3.71,11.894c0,9.419,4.25,14.128,12.748,14.128c3.072,0,6.084-0.571,9.037-1.715L149.712,414.023z
		 M102.251,399.479c0.438-2.514,1.396-4.499,2.873-5.956c1.476-1.456,3.311-2.185,5.506-2.185c2.394,0,4.289,0.749,5.686,2.245
		c1.396,1.496,2.054,3.462,1.975,5.896H102.251z M119.607,392.058c-1.996-2.394-4.908-3.591-8.738-3.591
		c-3.95,0-7.083,1.436-9.396,4.309c-2.314,2.873-3.471,6.583-3.471,11.132c0,10.174,4.528,15.262,13.586,15.262
		c3.551,0,6.763-0.578,9.636-1.736l-0.359-3.352c-2.554,1.278-5.427,1.916-8.619,1.916c-7.143,0-10.554-4.528-10.234-13.586h20.169
		c0.08-0.559,0.12-1.217,0.12-1.975C122.301,396.965,121.403,394.173,119.607,392.058 M89.743,375h-3.83v43.691h3.83V375z
		 M75.199,375h-3.83v43.691h3.83V375z M56.646,413.118c-1.716,2-3.911,3-6.583,3c-3.073,0-5.446-1.09-7.123-3.269
		c-1.676-2.18-2.514-5.25-2.514-9.21c0-3.919,0.977-6.98,2.933-9.18c1.755-1.959,3.97-2.939,6.644-2.939
		c3.112,0,5.476,1.06,7.092,3.18c1.616,2.12,2.423,5.08,2.423,8.878C59.519,407.699,58.561,410.877,56.646,413.118 M59.467,391.759
		c-2.229-2.194-5.255-3.292-9.077-3.292c-4.3,0-7.724,1.536-10.271,4.608c-2.429,2.873-3.643,6.484-3.643,10.833
		c0,5.067,1.175,8.918,3.524,11.551c2.189,2.475,5.314,3.711,9.375,3.711c4.22,0,7.645-1.557,10.272-4.669
		c2.467-2.952,3.702-6.663,3.702-11.132C63.349,398.183,62.055,394.312,59.467,391.759 M30.671,413.484
		c-3.032,1.556-6.325,2.334-9.875,2.334c-10.056,0-15.083-5.705-15.083-17.117c0-5.147,1.117-9.256,3.352-12.33
		c2.553-3.471,6.264-5.206,11.132-5.206c3.352,0,6.663,0.538,9.936,1.615l0.418-3.591c-3.272-0.838-6.444-1.257-9.517-1.257
		c-6.583,0-11.551,2.075-14.903,6.225c-3.032,3.711-4.549,8.779-4.549,15.202c0,6.265,1.526,11.133,4.579,14.604
		c3.053,3.471,7.551,5.207,13.497,5.207c4.108,0,7.919-0.758,11.431-2.275L30.671,413.484z"/>
</g>
</svg>
