<?xml version="1.0" encoding="utf-8"?>
<!-- Generator: Adobe Illustrator 16.0.0, SVG Export Plug-In . SVG Version: 6.00 Build 0)  -->
<!DOCTYPE svg PUBLIC "-//W3C//DTD SVG 1.1//EN" "http://www.w3.org/Graphics/SVG/1.1/DTD/svg11.dtd">
<svg version="1.1" id="Layer_1" xmlns="http://www.w3.org/2000/svg" xmlns:xlink="http://www.w3.org/1999/xlink" x="0px" y="0px"
	 width="449.701px" height="169.302px" viewBox="0 0 449.701 169.302" enable-background="new 0 0 449.701 169.302"
	 xml:space="preserve">
<g>
	<path fill="#010202" d="M429.151,24.479c0.439-2.514,1.396-4.499,2.872-5.956c1.477-1.456,3.312-2.185,5.507-2.185
		c2.394,0,4.289,0.749,5.687,2.245c1.396,1.496,2.054,3.462,1.975,5.896H429.151z M446.508,17.058
		c-1.996-2.394-4.908-3.591-8.738-3.591c-3.95,0-7.083,1.436-9.397,4.309c-2.313,2.873-3.47,6.583-3.47,11.132
		c0,10.174,4.526,15.262,13.585,15.262c3.552,0,6.764-0.578,9.637-1.736l-0.359-3.352c-2.554,1.278-5.427,1.916-8.618,1.916
		c-7.144,0-10.555-4.528-10.234-13.586h20.169c0.08-0.559,0.12-1.217,0.12-1.975C449.201,21.965,448.304,19.173,446.508,17.058
		 M404.471,41.058c-2.465,0-4.532-0.299-6.202-0.897V29.327c0-3.112,0.754-5.905,2.266-8.379c1.789-2.952,4.154-4.429,7.098-4.429
		c5.09,0,7.635,3.77,7.635,11.311C415.267,36.649,411.667,41.058,404.471,41.058 M408.204,13.467c-2.396,0-4.51,0.658-6.345,1.975
		c-1.836,1.317-3.172,3.112-4.01,5.386l-0.12-0.06c0.359-1.556,0.539-3.83,0.539-6.823h-3.831v44.769h3.831V43.631
		c1.71,0.24,3.68,0.359,5.907,0.359c4.616,0,8.276-1.426,10.981-4.28c2.706-2.852,4.058-6.932,4.058-12.239
		C419.215,18.135,415.544,13.467,408.204,13.467 M379.716,38.118c-1.717,2-3.912,3-6.585,3c-3.073,0-5.445-1.09-7.122-3.269
		c-1.676-2.18-2.514-5.25-2.514-9.21c0-3.919,0.978-6.98,2.933-9.18c1.756-1.959,3.97-2.939,6.644-2.939
		c3.112,0,5.477,1.06,7.093,3.18c1.616,2.12,2.424,5.08,2.424,8.878C382.588,32.699,381.63,35.877,379.716,38.118 M382.536,16.759
		c-2.23-2.194-5.256-3.292-9.077-3.292c-4.3,0-7.724,1.536-10.271,4.608c-2.429,2.873-3.644,6.484-3.644,10.833
		c0,5.067,1.176,8.918,3.525,11.551c2.188,2.475,5.314,3.711,9.375,3.711c4.219,0,7.644-1.557,10.271-4.669
		c2.468-2.952,3.702-6.663,3.702-11.132C386.418,23.183,385.123,19.312,382.536,16.759 M355.057,13.407
		c-4.828,0-7.96,2.793-9.396,8.379l-0.12-0.061c0.519-2.552,0.778-5.147,0.778-7.78h-3.83v29.746h3.83V31.894
		c0-9.851,2.776-14.776,8.33-14.776h1.605l0.179-3.651C355.954,13.427,355.496,13.407,355.057,13.407 M331.774,13.946h-3.83V28.19
		c0,3.751-0.895,6.853-2.683,9.307c-1.789,2.453-4.075,3.68-6.856,3.68c-2.226,0-3.816-0.697-4.77-2.095
		c-0.836-1.236-1.252-3.171-1.252-5.805V13.946h-3.831v20.708c0,6.384,2.993,9.576,8.978,9.576c5.347,0,8.938-2.493,10.772-7.481
		l0.121,0.06c-0.32,1.835-0.479,4.129-0.479,6.883h3.83V13.946z M299.037,40.519h-16.1v-16.16h15.322v-3.052h-15.322V6.345h16.1
		V3.292h-19.931v40.399h19.931V40.519z M247.395,54.285c-1.949,1.317-4.614,1.976-7.996,1.976c-2.706,0-4.913-0.539-6.624-1.616
		c-1.711-1.078-2.566-2.614-2.566-4.608c0-2.633,1.531-4.749,4.595-6.344h8.355c4.773,0,7.16,1.795,7.16,5.387
		C250.319,51.232,249.344,52.968,247.395,54.285 M246.04,30.314c-1.537,1.376-3.621,2.065-6.255,2.065
		c-5.666,0-8.498-2.634-8.498-7.9c0-2.394,0.778-4.339,2.334-5.836c1.556-1.497,3.689-2.244,6.403-2.244
		c2.634,0,4.678,0.709,6.135,2.125c1.456,1.417,2.185,3.402,2.185,5.956C248.344,26.993,247.576,28.938,246.04,30.314
		 M251.546,42.524c-1.735-1.456-4.2-2.185-7.392-2.185h-6.104c-3.672,0-5.507-0.897-5.507-2.693c0-1.276,0.778-2.234,2.334-2.873
		c1.356,0.358,2.813,0.538,4.369,0.538c4.149,0,7.381-1.093,9.695-3.281c2.155-1.988,3.232-4.633,3.232-7.934
		c0-3.182-1.038-5.548-3.112-7.1h5.626v-3.052h-10.115c-1.676-0.319-3.112-0.479-4.31-0.479c-3.87,0-6.972,1.098-9.307,3.292
		c-2.334,2.194-3.501,4.908-3.501,8.14c0,4.069,1.476,6.982,4.429,8.738c-2.155,0.998-3.232,2.554-3.232,4.668
		c0,1.915,0.997,3.351,2.993,4.309c-3.512,1.835-5.267,4.528-5.267,8.08c0,2.792,1.107,4.947,3.322,6.464
		c2.214,1.516,5.217,2.274,9.007,2.274c4.468,0,8.16-1.028,11.073-3.083c2.912-2.055,4.369-4.638,4.369-7.75
		C254.149,46.005,253.281,43.98,251.546,42.524 M218.478,22.983c0-6.383-3.001-9.576-9.004-9.576c-5.363,0-8.965,2.494-10.806,7.481
		l-0.12-0.061c0.359-1.875,0.539-4.168,0.539-6.882h-3.831v29.746h3.831V29.447c0-3.75,0.894-6.853,2.683-9.306
		c1.788-2.455,4.073-3.681,6.856-3.681c2.226,0,3.816,0.698,4.77,2.094c0.834,1.238,1.252,3.172,1.252,5.806v19.332h3.83V22.983z
		 M185.022,13.946h-3.831v29.746h3.831V13.946z M185.022,3.651c-0.519-0.518-1.158-0.778-1.916-0.778
		c-0.758,0-1.397,0.26-1.915,0.778c-0.519,0.52-0.778,1.158-0.778,1.916c0,0.758,0.259,1.397,0.778,1.916
		c0.517,0.519,1.156,0.778,1.915,0.778c0.758,0,1.397-0.259,1.916-0.778c0.518-0.519,0.778-1.158,0.778-1.916
		C185.801,4.809,185.54,4.17,185.022,3.651 M173.173,40.22c-1.308,0.359-2.774,0.539-4.4,0.539c-1.863,0-3.112-0.477-3.747-1.433
		c-0.634-0.955-0.951-2.845-0.951-5.672V16.998h9.098v-3.052h-9.098V2.873l-3.83,1.018v10.055h-6.764v3.052h6.764V35.51
		c0,3.106,0.521,5.276,1.563,6.51c1.082,1.393,3.046,2.09,5.893,2.09c1.764,0,3.587-0.179,5.472-0.539V40.22z M149.712,39.023
		c-2.315,1.158-4.949,1.735-7.901,1.735c-6.344,0-9.516-3.89-9.516-11.673c0-3.851,0.858-6.899,2.574-9.142
		c1.715-2.243,4.209-3.365,7.481-3.365c2.474,0,4.867,0.459,7.182,1.377l0.419-3.306c-2.236-0.668-4.629-1.003-7.182-1.003
		c-4.709,0-8.3,1.441-10.774,4.322c-2.474,2.883-3.71,6.847-3.71,11.894c0,9.419,4.25,14.128,12.748,14.128
		c3.072,0,6.084-0.571,9.037-1.715L149.712,39.023z M102.251,24.479c0.438-2.514,1.396-4.499,2.873-5.956
		c1.476-1.456,3.311-2.185,5.506-2.185c2.394,0,4.289,0.749,5.686,2.245c1.396,1.496,2.054,3.462,1.975,5.896H102.251z
		 M119.607,17.058c-1.996-2.394-4.908-3.591-8.738-3.591c-3.95,0-7.083,1.436-9.396,4.309c-2.314,2.873-3.471,6.583-3.471,11.132
		c0,10.174,4.528,15.262,13.586,15.262c3.551,0,6.763-0.578,9.636-1.736l-0.359-3.352c-2.554,1.278-5.427,1.916-8.619,1.916
		c-7.143,0-10.554-4.528-10.234-13.586h20.169c0.08-0.559,0.12-1.217,0.12-1.975C122.301,21.965,121.403,19.173,119.607,17.058
		 M89.743,0h-3.83v43.691h3.83V0z M75.199,0h-3.83v43.691h3.83V0z M56.646,38.118c-1.716,2-3.911,3-6.583,3
		c-3.073,0-5.446-1.09-7.123-3.269c-1.676-2.18-2.514-5.25-2.514-9.21c0-3.919,0.977-6.98,2.933-9.18
		c1.755-1.959,3.97-2.939,6.644-2.939c3.112,0,5.476,1.06,7.092,3.18c1.616,2.12,2.423,5.08,2.423,8.878
		C59.519,32.699,58.561,35.877,56.646,38.118 M59.467,16.759c-2.229-2.194-5.255-3.292-9.077-3.292c-4.3,0-7.724,1.536-10.271,4.608
		c-2.429,2.873-3.643,6.484-3.643,10.833c0,5.067,1.175,8.918,3.524,11.551c2.189,2.475,5.314,3.711,9.375,3.711
		c4.22,0,7.645-1.557,10.272-4.669c2.467-2.952,3.702-6.663,3.702-11.132C63.349,23.183,62.055,19.312,59.467,16.759 M30.671,38.484
		c-3.032,1.556-6.325,2.334-9.875,2.334c-10.056,0-15.083-5.705-15.083-17.117c0-5.147,1.117-9.256,3.352-12.33
		c2.553-3.471,6.264-5.206,11.132-5.206c3.352,0,6.663,0.538,9.936,1.615l0.418-3.591c-3.272-0.838-6.444-1.257-9.517-1.257
		c-6.583,0-11.551,2.075-14.903,6.225C3.1,12.868,1.583,17.936,1.583,24.359c0,6.265,1.526,11.133,4.579,14.604
		c3.053,3.471,7.551,5.207,13.497,5.207c4.108,0,7.919-0.758,11.431-2.275L30.671,38.484z"/>
	<path fill="#010202" d="M429.151,79.414c0.439-2.514,1.396-4.498,2.872-5.955c1.477-1.456,3.312-2.185,5.507-2.185
		c2.394,0,4.289,0.748,5.687,2.245c1.396,1.496,2.054,3.462,1.975,5.895H429.151z M446.508,71.992
		c-1.996-2.394-4.908-3.591-8.738-3.591c-3.95,0-7.083,1.437-9.397,4.31c-2.313,2.873-3.47,6.583-3.47,11.132
		c0,10.175,4.526,15.262,13.585,15.262c3.552,0,6.764-0.578,9.637-1.735l-0.359-3.352c-2.554,1.278-5.427,1.916-8.618,1.916
		c-7.144,0-10.555-4.528-10.234-13.586h20.169c0.08-0.559,0.12-1.217,0.12-1.975C449.201,76.9,448.304,74.108,446.508,71.992
		 M404.471,95.993c-2.465,0-4.532-0.3-6.202-0.898V84.262c0-3.113,0.754-5.905,2.266-8.379c1.789-2.952,4.154-4.429,7.098-4.429
		c5.09,0,7.635,3.771,7.635,11.312C415.267,91.584,411.667,95.993,404.471,95.993 M408.204,68.401c-2.396,0-4.51,0.659-6.345,1.976
		c-1.836,1.316-3.172,3.112-4.01,5.386l-0.12-0.06c0.359-1.556,0.539-3.83,0.539-6.823h-3.831v44.769h3.831V98.566
		c1.71,0.239,3.68,0.359,5.907,0.359c4.616,0,8.276-1.426,10.981-4.28c2.706-2.852,4.058-6.932,4.058-12.239
		C419.215,73.069,415.544,68.401,408.204,68.401 M379.716,93.053c-1.717,2-3.912,3-6.585,3c-3.073,0-5.445-1.089-7.122-3.269
		c-1.676-2.18-2.514-5.25-2.514-9.209c0-3.92,0.978-6.98,2.933-9.18c1.756-1.96,3.97-2.94,6.644-2.94
		c3.112,0,5.477,1.06,7.093,3.181c1.616,2.12,2.424,5.08,2.424,8.878C382.588,87.633,381.63,90.812,379.716,93.053 M382.536,71.693
		c-2.23-2.194-5.256-3.292-9.077-3.292c-4.3,0-7.724,1.537-10.271,4.609c-2.429,2.873-3.644,6.484-3.644,10.833
		c0,5.068,1.176,8.918,3.525,11.551c2.188,2.474,5.314,3.711,9.375,3.711c4.219,0,7.644-1.556,10.271-4.668
		c2.468-2.952,3.702-6.663,3.702-11.132C386.418,78.118,385.123,74.247,382.536,71.693 M355.057,68.342
		c-4.828,0-7.96,2.793-9.396,8.379l-0.12-0.061c0.519-2.552,0.778-5.147,0.778-7.78h-3.83v29.746h3.83V86.829
		c0-9.852,2.776-14.776,8.33-14.776h1.605l0.179-3.652C355.954,68.362,355.496,68.342,355.057,68.342 M331.774,68.88h-3.83v14.245
		c0,3.751-0.895,6.853-2.683,9.307c-1.789,2.454-4.075,3.681-6.856,3.681c-2.226,0-3.816-0.697-4.77-2.095
		c-0.836-1.236-1.252-3.171-1.252-5.805V68.88h-3.831v20.708c0,6.385,2.993,9.577,8.978,9.577c5.347,0,8.938-2.494,10.772-7.481
		l0.121,0.06c-0.32,1.835-0.479,4.129-0.479,6.882h3.83V68.88z M299.037,95.454h-16.1v-16.16h15.322v-3.053h-15.322V61.279h16.1
		v-3.052h-19.931v40.399h19.931V95.454z M247.395,109.22c-1.949,1.317-4.614,1.976-7.996,1.976c-2.706,0-4.913-0.54-6.624-1.616
		c-1.711-1.078-2.566-2.614-2.566-4.609c0-2.633,1.531-4.749,4.595-6.344h8.355c4.773,0,7.16,1.796,7.16,5.387
		C250.319,106.167,249.344,107.903,247.395,109.22 M246.04,85.25c-1.537,1.376-3.621,2.065-6.255,2.065
		c-5.666,0-8.498-2.634-8.498-7.9c0-2.394,0.778-4.339,2.334-5.835s3.689-2.245,6.403-2.245c2.634,0,4.678,0.709,6.135,2.125
		c1.456,1.417,2.185,3.402,2.185,5.955C248.344,81.928,247.576,83.873,246.04,85.25 M251.546,97.459
		c-1.735-1.457-4.2-2.185-7.392-2.185h-6.104c-3.672,0-5.507-0.898-5.507-2.693c0-1.276,0.778-2.234,2.334-2.873
		c1.356,0.359,2.813,0.539,4.369,0.539c4.149,0,7.381-1.093,9.695-3.281c2.155-1.988,3.232-4.633,3.232-7.934
		c0-3.182-1.038-5.547-3.112-7.099h5.626V68.88h-10.115c-1.676-0.319-3.112-0.479-4.31-0.479c-3.87,0-6.972,1.099-9.307,3.292
		c-2.334,2.195-3.501,4.907-3.501,8.14c0,4.07,1.476,6.983,4.429,8.738c-2.155,0.998-3.232,2.554-3.232,4.668
		c0,1.915,0.997,3.352,2.993,4.309c-3.512,1.834-5.267,4.528-5.267,8.08c0,2.792,1.107,4.947,3.322,6.464
		c2.214,1.516,5.217,2.274,9.007,2.274c4.468,0,8.16-1.027,11.073-3.082c2.912-2.055,4.369-4.639,4.369-7.75
		C254.149,100.94,253.281,98.915,251.546,97.459 M218.478,77.918c0-6.383-3.001-9.576-9.004-9.576
		c-5.363,0-8.965,2.494-10.806,7.481l-0.12-0.061c0.359-1.875,0.539-4.168,0.539-6.882h-3.831v29.746h3.831V84.382
		c0-3.75,0.894-6.853,2.683-9.307c1.788-2.454,4.073-3.681,6.856-3.681c2.226,0,3.816,0.698,4.77,2.094
		c0.834,1.237,1.252,3.172,1.252,5.806v19.332h3.83V77.918z M185.022,68.88h-3.831v29.746h3.831V68.88z M185.022,58.586
		c-0.519-0.518-1.158-0.778-1.916-0.778c-0.758,0-1.397,0.26-1.915,0.778c-0.519,0.519-0.778,1.158-0.778,1.916
		s0.259,1.397,0.778,1.915c0.517,0.519,1.156,0.778,1.915,0.778c0.758,0,1.397-0.259,1.916-0.778
		c0.518-0.518,0.778-1.157,0.778-1.915S185.54,59.105,185.022,58.586 M173.173,95.155c-1.308,0.359-2.774,0.539-4.4,0.539
		c-1.863,0-3.112-0.477-3.747-1.433c-0.634-0.955-0.951-2.845-0.951-5.672V71.933h9.098V68.88h-9.098V57.808l-3.83,1.017V68.88
		h-6.764v3.052h6.764v18.512c0,3.106,0.521,5.276,1.563,6.51c1.082,1.393,3.046,2.09,5.893,2.09c1.764,0,3.587-0.18,5.472-0.539
		V95.155z M149.712,93.958c-2.315,1.158-4.949,1.736-7.901,1.736c-6.344,0-9.516-3.89-9.516-11.672c0-3.852,0.858-6.899,2.574-9.143
		c1.715-2.242,4.209-3.365,7.481-3.365c2.474,0,4.867,0.459,7.182,1.376l0.419-3.305c-2.236-0.669-4.629-1.003-7.182-1.003
		c-4.709,0-8.3,1.44-10.774,4.322c-2.474,2.882-3.71,6.846-3.71,11.894c0,9.419,4.25,14.129,12.748,14.129
		c3.072,0,6.084-0.571,9.037-1.715L149.712,93.958z M102.251,79.414c0.438-2.514,1.396-4.498,2.873-5.955
		c1.476-1.456,3.311-2.185,5.506-2.185c2.394,0,4.289,0.748,5.686,2.245c1.396,1.496,2.054,3.462,1.975,5.895H102.251z
		 M119.607,71.992c-1.996-2.394-4.908-3.591-8.738-3.591c-3.95,0-7.083,1.437-9.396,4.31c-2.314,2.873-3.471,6.583-3.471,11.132
		c0,10.175,4.528,15.262,13.586,15.262c3.551,0,6.763-0.578,9.636-1.735l-0.359-3.352c-2.554,1.278-5.427,1.916-8.619,1.916
		c-7.143,0-10.554-4.528-10.234-13.586h20.169c0.08-0.559,0.12-1.217,0.12-1.975C122.301,76.9,121.403,74.108,119.607,71.992
		 M89.743,54.935h-3.83v43.691h3.83V54.935z M75.199,54.935h-3.83v43.691h3.83V54.935z M56.646,93.053c-1.716,2-3.911,3-6.583,3
		c-3.073,0-5.446-1.089-7.123-3.269c-1.676-2.18-2.514-5.25-2.514-9.209c0-3.92,0.977-6.98,2.933-9.18
		c1.755-1.96,3.97-2.94,6.644-2.94c3.112,0,5.476,1.06,7.092,3.181c1.616,2.12,2.423,5.08,2.423,8.878
		C59.519,87.633,58.561,90.812,56.646,93.053 M59.467,71.693c-2.229-2.194-5.255-3.292-9.077-3.292c-4.3,0-7.724,1.537-10.271,4.609
		c-2.429,2.873-3.643,6.484-3.643,10.833c0,5.068,1.175,8.918,3.524,11.551c2.189,2.474,5.314,3.711,9.375,3.711
		c4.22,0,7.645-1.556,10.272-4.668c2.467-2.952,3.702-6.663,3.702-11.132C63.349,78.118,62.055,74.247,59.467,71.693 M30.671,93.419
		c-3.032,1.556-6.325,2.334-9.875,2.334c-10.056,0-15.083-5.706-15.083-17.117c0-5.147,1.117-9.256,3.352-12.33
		c2.553-3.472,6.264-5.207,11.132-5.207c3.352,0,6.663,0.538,9.936,1.616l0.418-3.591c-3.272-0.838-6.444-1.257-9.517-1.257
		c-6.583,0-11.551,2.075-14.903,6.225C3.1,67.803,1.583,72.871,1.583,79.294c0,6.265,1.526,11.132,4.579,14.604
		c3.053,3.472,7.551,5.207,13.497,5.207c4.108,0,7.919-0.758,11.431-2.274L30.671,93.419z"/>
	<path fill="#010202" d="M429.151,134.349c0.439-2.514,1.396-4.499,2.872-5.956c1.477-1.456,3.312-2.184,5.507-2.184
		c2.394,0,4.289,0.748,5.687,2.245c1.396,1.495,2.054,3.461,1.975,5.895H429.151z M446.508,126.927
		c-1.996-2.394-4.908-3.591-8.738-3.591c-3.95,0-7.083,1.437-9.397,4.31c-2.313,2.872-3.47,6.583-3.47,11.131
		c0,10.175,4.526,15.263,13.585,15.263c3.552,0,6.764-0.578,9.637-1.735l-0.359-3.352c-2.554,1.277-5.427,1.915-8.618,1.915
		c-7.144,0-10.555-4.528-10.234-13.586h20.169c0.08-0.558,0.12-1.217,0.12-1.975C449.201,131.835,448.304,129.042,446.508,126.927
		 M404.471,150.927c-2.465,0-4.532-0.299-6.202-0.897v-10.833c0-3.112,0.754-5.905,2.266-8.379c1.789-2.953,4.154-4.429,7.098-4.429
		c5.09,0,7.635,3.771,7.635,11.312C415.267,146.52,411.667,150.927,404.471,150.927 M408.204,123.336
		c-2.396,0-4.51,0.659-6.345,1.976c-1.836,1.317-3.172,3.112-4.01,5.386l-0.12-0.06c0.359-1.556,0.539-3.831,0.539-6.823h-3.831
		v44.769h3.831v-15.083c1.71,0.239,3.68,0.359,5.907,0.359c4.616,0,8.276-1.426,10.981-4.279c2.706-2.853,4.058-6.932,4.058-12.24
		C419.215,128.004,415.544,123.336,408.204,123.336 M379.716,147.987c-1.717,2-3.912,3-6.585,3c-3.073,0-5.445-1.089-7.122-3.269
		c-1.676-2.181-2.514-5.25-2.514-9.21c0-3.92,0.978-6.98,2.933-9.18c1.756-1.959,3.97-2.94,6.644-2.94
		c3.112,0,5.477,1.061,7.093,3.181s2.424,5.08,2.424,8.879C382.588,142.568,381.63,145.748,379.716,147.987 M382.536,126.628
		c-2.23-2.194-5.256-3.292-9.077-3.292c-4.3,0-7.724,1.537-10.271,4.608c-2.429,2.874-3.644,6.485-3.644,10.833
		c0,5.068,1.176,8.918,3.525,11.551c2.188,2.475,5.314,3.711,9.375,3.711c4.219,0,7.644-1.556,10.271-4.668
		c2.468-2.952,3.702-6.663,3.702-11.132C386.418,133.053,385.123,129.182,382.536,126.628 M355.057,123.276
		c-4.828,0-7.96,2.793-9.396,8.379l-0.12-0.06c0.519-2.554,0.778-5.147,0.778-7.781h-3.83v29.746h3.83v-11.797
		c0-9.851,2.776-14.776,8.33-14.776h1.605l0.179-3.652C355.954,123.297,355.496,123.276,355.057,123.276 M331.774,123.815h-3.83
		v14.244c0,3.752-0.895,6.854-2.683,9.307c-1.789,2.454-4.075,3.681-6.856,3.681c-2.226,0-3.816-0.697-4.77-2.094
		c-0.836-1.236-1.252-3.172-1.252-5.805v-19.333h-3.831v20.709c0,6.384,2.993,9.576,8.978,9.576c5.347,0,8.938-2.493,10.772-7.481
		l0.121,0.06c-0.32,1.835-0.479,4.129-0.479,6.882h3.83V123.815z M299.037,150.389h-16.1v-16.16h15.322v-3.053h-15.322v-14.963h16.1
		v-3.052h-19.931v40.399h19.931V150.389z M247.395,164.155c-1.949,1.316-4.614,1.976-7.996,1.976c-2.706,0-4.913-0.54-6.624-1.617
		c-1.711-1.077-2.566-2.614-2.566-4.608c0-2.634,1.531-4.749,4.595-6.344h8.355c4.773,0,7.16,1.795,7.16,5.387
		C250.319,161.102,249.344,162.838,247.395,164.155 M246.04,140.185c-1.537,1.376-3.621,2.064-6.255,2.064
		c-5.666,0-8.498-2.633-8.498-7.9c0-2.394,0.778-4.339,2.334-5.835c1.556-1.497,3.689-2.245,6.403-2.245
		c2.634,0,4.678,0.709,6.135,2.125c1.456,1.417,2.185,3.403,2.185,5.956C248.344,136.863,247.576,138.808,246.04,140.185
		 M251.546,152.395c-1.735-1.457-4.2-2.185-7.392-2.185h-6.104c-3.672,0-5.507-0.898-5.507-2.693c0-1.276,0.778-2.234,2.334-2.873
		c1.356,0.359,2.813,0.539,4.369,0.539c4.149,0,7.381-1.093,9.695-3.281c2.155-1.989,3.232-4.633,3.232-7.935
		c0-3.181-1.038-5.547-3.112-7.099h5.626v-3.053h-10.115c-1.676-0.318-3.112-0.479-4.31-0.479c-3.87,0-6.972,1.099-9.307,3.292
		c-2.334,2.195-3.501,4.907-3.501,8.139c0,4.07,1.476,6.983,4.429,8.739c-2.155,0.998-3.232,2.553-3.232,4.668
		c0,1.916,0.997,3.352,2.993,4.31c-3.512,1.834-5.267,4.528-5.267,8.08c0,2.792,1.107,4.947,3.322,6.464
		c2.214,1.516,5.217,2.274,9.007,2.274c4.468,0,8.16-1.027,11.073-3.082c2.912-2.055,4.369-4.639,4.369-7.751
		C254.149,155.875,253.281,153.85,251.546,152.395 M218.478,132.853c0-6.384-3.001-9.577-9.004-9.577
		c-5.363,0-8.965,2.494-10.806,7.481l-0.12-0.06c0.359-1.875,0.539-4.169,0.539-6.883h-3.831v29.746h3.831v-14.244
		c0-3.75,0.894-6.853,2.683-9.307c1.788-2.454,4.073-3.681,6.856-3.681c2.226,0,3.816,0.699,4.77,2.094
		c0.834,1.237,1.252,3.173,1.252,5.806v19.332h3.83V132.853z M185.022,123.815h-3.831v29.746h3.831V123.815z M185.022,113.521
		c-0.519-0.518-1.158-0.778-1.916-0.778c-0.758,0-1.397,0.26-1.915,0.778c-0.519,0.519-0.778,1.158-0.778,1.916
		s0.259,1.396,0.778,1.915c0.517,0.519,1.156,0.778,1.915,0.778c0.758,0,1.397-0.259,1.916-0.778
		c0.518-0.519,0.778-1.157,0.778-1.915S185.54,114.04,185.022,113.521 M173.173,150.09c-1.308,0.359-2.774,0.539-4.4,0.539
		c-1.863,0-3.112-0.477-3.747-1.433c-0.634-0.955-0.951-2.846-0.951-5.672v-16.656h9.098v-3.053h-9.098v-11.072l-3.83,1.018v10.055
		h-6.764v3.053h6.764v18.512c0,3.106,0.521,5.276,1.563,6.51c1.082,1.394,3.046,2.09,5.893,2.09c1.764,0,3.587-0.18,5.472-0.539
		V150.09z M149.712,148.893c-2.315,1.158-4.949,1.736-7.901,1.736c-6.344,0-9.516-3.891-9.516-11.673
		c0-3.851,0.858-6.899,2.574-9.142c1.715-2.243,4.209-3.365,7.481-3.365c2.474,0,4.867,0.459,7.182,1.376l0.419-3.305
		c-2.236-0.669-4.629-1.003-7.182-1.003c-4.709,0-8.3,1.44-10.774,4.322c-2.474,2.882-3.71,6.846-3.71,11.893
		c0,9.419,4.25,14.129,12.748,14.129c3.072,0,6.084-0.571,9.037-1.715L149.712,148.893z M102.251,134.349
		c0.438-2.514,1.396-4.499,2.873-5.956c1.476-1.456,3.311-2.184,5.506-2.184c2.394,0,4.289,0.748,5.686,2.245
		c1.396,1.495,2.054,3.461,1.975,5.895H102.251z M119.607,126.927c-1.996-2.394-4.908-3.591-8.738-3.591
		c-3.95,0-7.083,1.437-9.396,4.31c-2.314,2.872-3.471,6.583-3.471,11.131c0,10.175,4.528,15.263,13.586,15.263
		c3.551,0,6.763-0.578,9.636-1.735l-0.359-3.352c-2.554,1.277-5.427,1.915-8.619,1.915c-7.143,0-10.554-4.528-10.234-13.586h20.169
		c0.08-0.558,0.12-1.217,0.12-1.975C122.301,131.835,121.403,129.042,119.607,126.927 M89.743,109.87h-3.83v43.691h3.83V109.87z
		 M75.199,109.87h-3.83v43.691h3.83V109.87z M56.646,147.987c-1.716,2-3.911,3-6.583,3c-3.073,0-5.446-1.089-7.123-3.269
		c-1.676-2.181-2.514-5.25-2.514-9.21c0-3.92,0.977-6.98,2.933-9.18c1.755-1.959,3.97-2.94,6.644-2.94
		c3.112,0,5.476,1.061,7.092,3.181c1.616,2.12,2.423,5.08,2.423,8.879C59.519,142.568,58.561,145.748,56.646,147.987
		 M59.467,126.628c-2.229-2.194-5.255-3.292-9.077-3.292c-4.3,0-7.724,1.537-10.271,4.608c-2.429,2.874-3.643,6.485-3.643,10.833
		c0,5.068,1.175,8.918,3.524,11.551c2.189,2.475,5.314,3.711,9.375,3.711c4.22,0,7.645-1.556,10.272-4.668
		c2.467-2.952,3.702-6.663,3.702-11.132C63.349,133.053,62.055,129.182,59.467,126.628 M30.671,148.354
		c-3.032,1.556-6.325,2.334-9.875,2.334c-10.056,0-15.083-5.706-15.083-17.118c0-5.147,1.117-9.256,3.352-12.329
		c2.553-3.472,6.264-5.207,11.132-5.207c3.352,0,6.663,0.539,9.936,1.616l0.418-3.591c-3.272-0.838-6.444-1.257-9.517-1.257
		c-6.583,0-11.551,2.075-14.903,6.224c-3.032,3.711-4.549,8.779-4.549,15.203c0,6.264,1.526,11.132,4.579,14.603
		c3.053,3.472,7.551,5.208,13.497,5.208c4.108,0,7.919-0.758,11.431-2.275L30.671,148.354z"/>
</g>
</svg>
